<?xml version="1.0" encoding="iso-8859-1"?>
<!-- Generator: Adobe Illustrator 19.0.0, SVG Export Plug-In . SVG Version: 6.00 Build 0)  -->
<svg version="1.1" id="Layer_1" xmlns="http://www.w3.org/2000/svg" xmlns:xlink="http://www.w3.org/1999/xlink" x="0px" y="0px"
	 viewBox="0 0 452.427 452.427" style="enable-background:new 0 0 452.427 452.427;" xml:space="preserve">
<g id="XMLID_250_">
	<g>
		<path d="M406.214,225L360,271.214h30.524c-6.253,69.057-55.229,125.965-120.218,144.008c0.594-2.911,0.907-5.924,0.907-9.008v-235
			h95v-30h-95v-15c0-10.516-3.636-20.193-9.703-27.863c12.034-10.097,19.703-25.235,19.703-42.137c0-30.327-24.673-55-55-55
			c-30.327,0-55,24.673-55,55c0,16.901,7.669,32.04,19.703,42.137c-6.067,7.67-9.703,17.348-9.703,27.863v15h-95v30h95v235
			c0,3.084,0.313,6.097,0.907,9.008c-64.99-18.043-113.965-74.951-120.218-144.008h30.524L46.213,225L0,271.214h31.785
			c7.685,100.542,91.952,180,194.429,180s186.744-79.458,194.429-180h31.784L406.214,225z M241.213,406.214c0,8.271-6.729,15-15,15
			s-15-6.728-15-15v-235h30V406.214z M241.213,141.214h-30v-15c0-8.271,6.729-15,15-15s15,6.729,15,15V141.214z M226.213,81.214
			c-13.785,0-25-11.215-25-25c0-13.785,11.215-25,25-25c13.785,0,25,11.215,25,25C251.213,69.998,239.998,81.214,226.213,81.214z"/>
	</g>
</g>
<g>
</g>
<g>
</g>
<g>
</g>
<g>
</g>
<g>
</g>
<g>
</g>
<g>
</g>
<g>
</g>
<g>
</g>
<g>
</g>
<g>
</g>
<g>
</g>
<g>
</g>
<g>
</g>
<g>
</g>
</svg>
