<?xml version="1.0" encoding="iso-8859-1"?>
<!-- Generator: Adobe Illustrator 19.0.0, SVG Export Plug-In . SVG Version: 6.00 Build 0)  -->
<svg version="1.1" id="Layer_1" xmlns="http://www.w3.org/2000/svg" xmlns:xlink="http://www.w3.org/1999/xlink" x="0px" y="0px"
	 viewBox="0 0 467.247 467.247" style="enable-background:new 0 0 467.247 467.247;" xml:space="preserve">
<g id="XMLID_289_">
	<g>
		<path d="M449.013,82.025l-10.607-10.606L427.8,82.025c-13.861,13.861-23.755,20.716-31.135,21.574
			c-2.868,0.333-7.136-0.017-14.006-4.718l28.32-28.32L347.34,6.92l-29.142,29.143L304.056,21.92L197.99,127.986l14.143,14.142
			L0,354.26l106.066,106.067l63.64-63.64l-10.607-10.607c-8.499-8.5-13.18-19.8-13.18-31.82s4.681-23.32,13.18-31.82L274.95,206.59
			c4.701,6.87,5.052,11.138,4.719,14.005c-0.857,7.38-7.713,17.273-21.574,31.135l-10.606,10.606l10.606,10.606
			c12.054,12.055,28.364,18.234,47.347,18.234c8.621,0,17.796-1.275,27.369-3.854c27.459-7.396,56.172-25.059,80.848-49.735
			c24.677-24.676,42.34-53.388,49.735-80.847C471.649,126.088,466.543,99.554,449.013,82.025z M347.34,49.347l21.214,21.213
			l-7.929,7.929l-21.213-21.213L347.34,49.347z M137.886,301.228c-14.166,14.165-21.967,33-21.967,53.033
			c0.001,14.937,4.337,29.207,12.415,41.372L106.066,417.9l-63.64-63.64l190.92-190.918l21.213,21.213L137.886,301.228z
			 M434.425,148.938c-6.051,22.466-20.96,46.416-41.98,67.436c-21.021,21.021-44.97,35.929-67.438,41.98
			c-8.225,2.215-21.426,4.512-33.029,0.889c8.799-10.57,16.001-22.371,17.49-35.185c1.798-15.471-4.074-28.831-12.378-39.369
			l-56.674-56.704l63.64-63.639l45.962,45.962c0.029,0.029,11.16,10.055,11.16,10.055c10.537,8.303,23.48,14.833,38.95,13.035
			c12.815-1.489,24.615-8.689,35.186-17.489C438.938,127.51,436.641,140.713,434.425,148.938z"/>
	</g>
</g>
<g>
</g>
<g>
</g>
<g>
</g>
<g>
</g>
<g>
</g>
<g>
</g>
<g>
</g>
<g>
</g>
<g>
</g>
<g>
</g>
<g>
</g>
<g>
</g>
<g>
</g>
<g>
</g>
<g>
</g>
</svg>
