<?xml version="1.0" encoding="iso-8859-1"?>
<!-- Generator: Adobe Illustrator 19.0.0, SVG Export Plug-In . SVG Version: 6.00 Build 0)  -->
<svg version="1.1" id="Layer_1" xmlns="http://www.w3.org/2000/svg" xmlns:xlink="http://www.w3.org/1999/xlink" x="0px" y="0px"
	 viewBox="0 0 450 450" style="enable-background:new 0 0 450 450;" xml:space="preserve">
<g id="XMLID_401_">
	<g>
		<g>
			<path d="M390,225c-10.925,0-21.168,2.949-30,8.072V180c0-54.827-38.57-100.809-90-112.255V50c0-24.813-20.187-45-45-45
				s-45,20.187-45,45v17.745C128.57,79.191,90,125.173,90,180v53.072C81.167,227.949,70.925,225,60,225c-33.084,0-60,26.916-60,60
				v160h450V285C450,251.916,423.084,225,390,225z M90,415H30V315h60V415z M30,285c0-16.542,13.458-30,30-30s30,13.458,30,30H30z
				 M210,50c0-8.271,6.729-15,15-15s15,6.729,15,15v15h-30V50z M330,415H120V180c0-46.869,38.131-85,85-85h40
				c46.869,0,85,38.131,85,85V415z M420,415h-60V315h60V415z M360,285c0-16.542,13.458-30,30-30s30,13.458,30,30H360z"/>
			<rect x="185" y="125" width="80" height="30"/>
			<path d="M255,275h-60c-24.813,0-45,20.187-45,45v65h150v-65C300,295.187,279.813,275,255,275z M270,355h-90v-35
				c0-8.271,6.729-15,15-15h60c8.271,0,15,6.729,15,15V355z"/>
		</g>
	</g>
</g>
<g>
</g>
<g>
</g>
<g>
</g>
<g>
</g>
<g>
</g>
<g>
</g>
<g>
</g>
<g>
</g>
<g>
</g>
<g>
</g>
<g>
</g>
<g>
</g>
<g>
</g>
<g>
</g>
<g>
</g>
</svg>
