<?xml version="1.0" encoding="iso-8859-1"?>
<!-- Generator: Adobe Illustrator 19.0.0, SVG Export Plug-In . SVG Version: 6.00 Build 0)  -->
<svg version="1.1" id="Layer_1" xmlns="http://www.w3.org/2000/svg" xmlns:xlink="http://www.w3.org/1999/xlink" x="0px" y="0px"
	 viewBox="0 0 450 450" style="enable-background:new 0 0 450 450;" xml:space="preserve">
<g id="XMLID_88_">
	<g>
		<path d="M384.099,65.9C341.603,23.406,285.102,0.002,225.004,0c-0.001,0-0.002,0-0.003,0H225C164.9,0,108.398,23.404,65.901,65.9
			C23.404,108.398,0,164.901,0,225s23.404,116.603,65.901,159.1C108.398,426.596,164.9,450,225,450h0.001
			c60.1,0,116.602-23.404,159.099-65.9c42.496-42.497,65.9-99,65.9-159.1C450,164.9,426.596,108.398,384.099,65.9z M221.657,30.043
			c1.107-0.02,2.212-0.043,3.323-0.043c0.007,0,0.013,0,0.02,0c1.117,0,2.23,0.023,3.344,0.043C261.927,30.891,280,44.379,280,50
			c0,5.805-19.273,20-55,20s-55-14.195-55-20C170,44.379,188.073,30.891,221.657,30.043z M30,225
			c0-77.078,44.955-143.85,110.02-175.485C140.018,49.678,140,49.837,140,50c0,12.205,6.716,23.117,18.182,31.615
			C146.421,121.406,140,171.745,140,225c0,73.035,12.461,146.65,36.654,188.932C92.44,392.369,30,315.842,30,225z M225.001,420
			c-9.051,0-23.466-15.847-35.267-51.251c-12.725-38.174-19.733-89.226-19.733-143.749c0-48.442,5.508-94.01,15.635-130.322
			c11.645,3.414,24.972,5.322,39.365,5.322s27.72-1.908,39.364-5.321C274.493,130.99,280,176.558,280,225
			c0,54.523-7.008,105.575-19.732,143.749C248.466,404.154,234.051,420,225.001,420z M273.346,413.931
			C297.54,371.651,310,298.035,310,225c0-53.256-6.421-103.594-18.182-143.385C303.285,73.117,310,62.205,310,50
			c0-0.163-0.018-0.322-0.02-0.485C375.045,81.151,420,147.922,420,225C420,315.841,357.561,392.369,273.346,413.931z"/>
	</g>
</g>
<g>
</g>
<g>
</g>
<g>
</g>
<g>
</g>
<g>
</g>
<g>
</g>
<g>
</g>
<g>
</g>
<g>
</g>
<g>
</g>
<g>
</g>
<g>
</g>
<g>
</g>
<g>
</g>
<g>
</g>
</svg>
