<?xml version="1.0" encoding="iso-8859-1"?>
<!-- Generator: Adobe Illustrator 19.0.0, SVG Export Plug-In . SVG Version: 6.00 Build 0)  -->
<svg version="1.1" id="Layer_1" xmlns="http://www.w3.org/2000/svg" xmlns:xlink="http://www.w3.org/1999/xlink" x="0px" y="0px"
	 viewBox="0 0 450 450" style="enable-background:new 0 0 450 450;" xml:space="preserve">
<g id="XMLID_255_">
	<g>
		<path d="M420,387.617L420,387.617c0,8.273-6.729,15.001-15,15.001c-6.961,0-12.813-4.772-14.497-11.213l52.525-78.787H240v-30h195
			c0,0,0.013-29.961,0.016-29.96c-7.777-1.419-39.503-24.947-93.143-82.042c-45.449-48.375-86.212-99.576-103.849-130.44L225,17.383
			l-13.023,22.791c-17.637,30.864-58.4,82.065-103.849,130.44c-53.641,57.095-85.335,80.623-93.112,82.042
			c0.002-0.001-0.016,29.96-0.016,29.96h195v30H6.972l52.525,78.787c-1.685,6.44-7.536,11.213-14.497,11.213
			c-8.271,0-15-6.728-15-15H0c0,24.814,20.187,45,45,45c11.517,0,22.032-4.353,30-11.495c7.968,7.142,18.483,11.495,30,11.495
			c11.517,0,22.032-4.353,30-11.495c7.968,7.142,18.483,11.495,30,11.495c11.517,0,22.032-4.353,30-11.495
			c7.968,7.142,18.483,11.495,30,11.495c11.517,0,22.032-4.353,30-11.495c7.968,7.142,18.483,11.495,30,11.495
			c11.517,0,22.032-4.353,30-11.495c7.968,7.142,18.483,11.495,30,11.495c11.517,0,22.032-4.353,30-11.495
			c7.968,7.142,18.483,11.495,30,11.495c24.813,0,45-20.186,45-45H420z M240,96.688c22.006,29.502,51.441,64.28,82.853,97.487
			c22.137,23.403,42.941,43.544,60.355,58.443H240V96.688z M66.792,252.618L66.792,252.618
			c17.414-14.899,38.218-35.041,60.355-58.443c31.412-33.207,60.847-67.985,82.853-97.487v155.93H66.792z M347.08,402.456
			c-0.682,0.096-1.373,0.162-2.08,0.162c-8.271,0-15-6.729-15-15h-30c0,8.272-6.729,15-15,15s-15-6.728-15-15h-30
			c0,8.272-6.729,15-15,15s-15-6.728-15-15h-30c0,8.272-6.729,15-15,15s-15-6.728-15-15h-30c0,8.272-6.729,15-15,15
			c-0.708,0-1.398-0.066-2.08-0.162l-39.892-59.838h323.944L347.08,402.456z"/>
	</g>
</g>
<g>
</g>
<g>
</g>
<g>
</g>
<g>
</g>
<g>
</g>
<g>
</g>
<g>
</g>
<g>
</g>
<g>
</g>
<g>
</g>
<g>
</g>
<g>
</g>
<g>
</g>
<g>
</g>
<g>
</g>
</svg>
