<?xml version="1.0" encoding="iso-8859-1"?>
<!-- Generator: Adobe Illustrator 19.0.0, SVG Export Plug-In . SVG Version: 6.00 Build 0)  -->
<svg version="1.1" id="Layer_1" xmlns="http://www.w3.org/2000/svg" xmlns:xlink="http://www.w3.org/1999/xlink" x="0px" y="0px"
	 viewBox="0 0 450 450" style="enable-background:new 0 0 450 450;" xml:space="preserve">
<g id="XMLID_325_">
	<g>
		<g>
			<path d="M395,95h-58.686l-20-70H133.685l-20,70H55c-30.327,0-55,24.673-55,55v220c0,30.327,24.673,55,55,55h340
				c30.327,0,55-24.673,55-55V150C450,119.673,425.327,95,395,95z M156.314,55h137.371l11.429,40H144.886L156.314,55z M30,205
				h117.581C136.515,220.531,130,239.519,130,260s6.515,39.469,17.581,55H30V205z M420,370c0,13.785-11.215,25-25,25H55
				c-13.785,0-25-11.215-25-25v-25h152.609c12.768,6.394,27.165,10,42.391,10s29.623-3.606,42.391-10H420V370z M160,260
				c0-35.841,29.159-65,65-65s65,29.159,65,65s-29.159,65-65,65S160,295.841,160,260z M420,315H302.419
				C313.485,299.469,320,280.481,320,260c0-20.481-6.515-39.469-17.581-55H420V315z M420,175H267.391
				c-12.769-6.394-27.165-10-42.391-10s-29.623,3.606-42.391,10H30v-25c0-13.785,11.215-25,25-25h340c13.785,0,25,11.215,25,25V175z
				"/>
			<rect x="355" y="255" width="40" height="30"/>
		</g>
	</g>
</g>
<g>
</g>
<g>
</g>
<g>
</g>
<g>
</g>
<g>
</g>
<g>
</g>
<g>
</g>
<g>
</g>
<g>
</g>
<g>
</g>
<g>
</g>
<g>
</g>
<g>
</g>
<g>
</g>
<g>
</g>
</svg>
