<?xml version="1.0" encoding="iso-8859-1"?>
<!-- Generator: Adobe Illustrator 19.0.0, SVG Export Plug-In . SVG Version: 6.00 Build 0)  -->
<svg version="1.1" id="Layer_1" xmlns="http://www.w3.org/2000/svg" xmlns:xlink="http://www.w3.org/1999/xlink" x="0px" y="0px"
	 viewBox="0 0 450 450" style="enable-background:new 0 0 450 450;" xml:space="preserve">
<g id="XMLID_107_">
	<g>
		<path d="M414.999,190h-20.036c-0.55-31.638-19.209-58.939-46.054-71.924c6.957-9.212,11.09-20.669,11.09-33.076
			c0-30.327-24.673-55-55-55h-5V0h-150v90h30v20h-43.571c-44.421,0-80.624,35.759-81.393,80H34.999v30h20v148.572
			c0,44.9,36.528,81.428,81.429,81.428h177.143c44.9,0,81.429-36.528,81.429-81.428V220h20v-30H414.999z M299.999,60h5
			c13.785,0,25,11.215,25,25c0,13.785-11.215,25-25,25h-35V90h30V60z M179.999,30h90v30h-90V30z M239.999,90v20h-30V90H239.999z
			 M136.428,140h43.571h90h43.571c27.878,0,50.631,22.303,51.393,50H85.035C85.797,162.303,108.551,140,136.428,140z
			 M364.999,368.572c0,28.358-23.071,51.428-51.429,51.428H136.428c-28.358,0-51.429-23.07-51.429-51.428V220h280V368.572z"/>
	</g>
</g>
<g>
</g>
<g>
</g>
<g>
</g>
<g>
</g>
<g>
</g>
<g>
</g>
<g>
</g>
<g>
</g>
<g>
</g>
<g>
</g>
<g>
</g>
<g>
</g>
<g>
</g>
<g>
</g>
<g>
</g>
</svg>
