<?xml version="1.0" encoding="iso-8859-1"?>
<!-- Generator: Adobe Illustrator 19.0.0, SVG Export Plug-In . SVG Version: 6.00 Build 0)  -->
<svg version="1.1" id="Layer_1" xmlns="http://www.w3.org/2000/svg" xmlns:xlink="http://www.w3.org/1999/xlink" x="0px" y="0px"
	 viewBox="0 0 445 445" style="enable-background:new 0 0 445 445;" xml:space="preserve">
<g id="XMLID_160_">
	<g>
		<g>
			<path d="M445,317.5h-25v-235c0-24.813-20.187-45-45-45H45c-24.813,0-45,20.187-45,45v265h150.233
				c-0.151,1.659-0.233,3.327-0.233,5c0,30.327,24.673,55,55,55c30.327,0,55-24.673,55-55c0-1.673-0.082-3.341-0.233-5H445V317.5z
				 M205,377.5c-13.785,0-25-11.215-25-25c0-1.685,0.171-3.361,0.506-5h48.988c0.335,1.639,0.506,3.315,0.506,5
				C230,366.285,218.785,377.5,205,377.5z M330,317.5h-50v-105c0-13.785,11.215-25,25-25c13.785,0,25,11.215,25,25V317.5z
				 M390,317.5h-30v-105c0-30.327-24.673-55-55-55c-30.327,0-55,24.673-55,55v105H30v-235c0-8.271,6.729-15,15-15h330
				c8.271,0,15,6.729,15,15V317.5z"/>
			<rect x="55" y="97.5" width="310" height="30"/>
			<path d="M190,157.5H85c-16.542,0-30,13.458-30,30v40c0,16.542,13.458,30,30,30h105c16.542,0,30-13.458,30-30v-40
				C220,170.958,206.542,157.5,190,157.5z M122.5,227.5H85v-40h37.5V227.5z M190,227.5h-37.5v-40H190l0.019,39.999
				C190.019,227.499,190.013,227.5,190,227.5z"/>
		</g>
	</g>
</g>
<g>
</g>
<g>
</g>
<g>
</g>
<g>
</g>
<g>
</g>
<g>
</g>
<g>
</g>
<g>
</g>
<g>
</g>
<g>
</g>
<g>
</g>
<g>
</g>
<g>
</g>
<g>
</g>
<g>
</g>
</svg>
