<?xml version="1.0" encoding="iso-8859-1"?>
<!-- Generator: Adobe Illustrator 19.0.0, SVG Export Plug-In . SVG Version: 6.00 Build 0)  -->
<svg version="1.1" id="Layer_1" xmlns="http://www.w3.org/2000/svg" xmlns:xlink="http://www.w3.org/1999/xlink" x="0px" y="0px"
	 viewBox="0 0 450 450" style="enable-background:new 0 0 450 450;" xml:space="preserve">
<g id="XMLID_39_">
	<g>
		<path d="M362.405,0c-20.297,0-39.652,7.613-54.501,21.437C294.089,34.298,285.348,51.422,283.028,70H138.537L85.007,0H7.595v30
			h62.587l30.588,40H74.355l-1.644,13.138c-0.36,2.88-8.841,70.888-10.104,101.239c-1.757,42.239,13.8,82.726,43.803,114.005
			c27.998,29.187,66.053,47.286,106.184,50.925V420h-45v30h120v-30h-45v-70.693c40.131-3.639,78.185-21.738,106.184-50.925
			c30.004-31.277,45.56-71.766,43.804-114.005c-0.327-7.87-1.141-18.275-2.171-29.417c11.524-4.302,21.988-11.254,30.558-20.46
			c13.823-14.848,21.436-34.203,21.436-54.5C442.405,35.888,406.518,0,362.405,0z M354.303,100c2.035,17.122,5.506,47.514,7.298,70
			H215.007l-53.529-70H354.303z M100.886,100h22.826l53.529,70H93.589C95.381,147.514,98.852,117.122,100.886,100z M327.129,277.614
			C301.289,304.551,265.01,320,227.595,320c-37.416,0-73.695-15.449-99.534-42.386C107.216,255.885,94.99,228.744,92.83,200h269.529
			C360.199,228.744,347.974,255.885,327.129,277.614z M387.184,123.383c-2.319-21.124-4.525-38.807-4.705-40.245L380.835,70h-67.413
			c4.669-22.866,25.091-40,48.983-40c27.57,0,50,22.43,50,50C412.405,98.377,402.266,114.696,387.184,123.383z"/>
	</g>
</g>
<g>
</g>
<g>
</g>
<g>
</g>
<g>
</g>
<g>
</g>
<g>
</g>
<g>
</g>
<g>
</g>
<g>
</g>
<g>
</g>
<g>
</g>
<g>
</g>
<g>
</g>
<g>
</g>
<g>
</g>
</svg>
