<?xml version="1.0" encoding="iso-8859-1"?>
<!-- Generator: Adobe Illustrator 19.0.0, SVG Export Plug-In . SVG Version: 6.00 Build 0)  -->
<svg version="1.1" id="Layer_1" xmlns="http://www.w3.org/2000/svg" xmlns:xlink="http://www.w3.org/1999/xlink" x="0px" y="0px"
	 viewBox="0 0 450 450" style="enable-background:new 0 0 450 450;" xml:space="preserve">
<g id="XMLID_390_">
	<g>
		<g>
			<path d="M265.654,64.275C268.438,58.429,270,51.895,270,45c0-24.813-20.186-45-45-45c-24.813,0-45,20.187-45,45
				c0,6.895,1.563,13.429,4.346,19.275C96.271,83.029,30,161.415,30,255c0,107.523,87.477,195,195,195s195-87.477,195-195
				C420,161.415,353.728,83.029,265.654,64.275z M225,30c8.271,0,15,6.729,15,15s-6.729,15-15,15s-15-6.729-15-15S216.729,30,225,30
				z M225,420c-90.981,0-165-74.019-165-165S134.019,90,225,90s165,74.019,165,165S315.981,420,225,420z"/>
			<path d="M225,120c-74.439,0-135,60.561-135,135s60.561,135,135,135s135-60.56,135-135S299.44,120,225,120z M240,358.924V335h-30
				v23.924c-45.915-6.597-82.327-43.008-88.924-88.924H145v-30h-23.924c6.597-45.915,43.008-82.327,88.924-88.924V175h30v-23.924
				c45.916,6.597,82.327,43.008,88.924,88.924H305v30h23.924C322.327,315.915,285.916,352.327,240,358.924z"/>
			<path d="M150.73,300h103.54l45-90H195.73L150.73,300z M214.27,240h36.459l-15,30H199.27L214.27,240z"/>
		</g>
	</g>
</g>
<g>
</g>
<g>
</g>
<g>
</g>
<g>
</g>
<g>
</g>
<g>
</g>
<g>
</g>
<g>
</g>
<g>
</g>
<g>
</g>
<g>
</g>
<g>
</g>
<g>
</g>
<g>
</g>
<g>
</g>
</svg>
