<?xml version="1.0" encoding="iso-8859-1"?>
<!-- Generator: Adobe Illustrator 19.0.0, SVG Export Plug-In . SVG Version: 6.00 Build 0)  -->
<svg version="1.1" id="Layer_1" xmlns="http://www.w3.org/2000/svg" xmlns:xlink="http://www.w3.org/1999/xlink" x="0px" y="0px"
	 viewBox="0 0 450 450" style="enable-background:new 0 0 450 450;" xml:space="preserve">
<g id="XMLID_82_">
	<g>
		<g>
			<path d="M411.716,133.003L351.213,72.5H158.787l-60.503,60.503C76.645,136.256,60,154.969,60,177.5v120c0,24.814,20.187,45,45,45
				h90c24.814,0,45-20.186,45-45v-10c0-8.272,6.729-15,15-15c8.272,0,15,6.728,15,15v10c0,24.814,20.186,45,45,45h90
				c24.814,0,45-20.186,45-45v-120C450,154.969,433.355,136.256,411.716,133.003z M171.213,102.5h167.574l30,30H141.213
				L171.213,102.5z M420,297.5c0,8.272-6.728,15-15,15h-90c-8.272,0-15-6.728-15-15v-10c0-24.814-20.186-45-45-45
				c-24.814,0-45,20.186-45,45v10c0,8.272-6.729,15-15,15h-90c-8.271,0-15-6.728-15-15v-120c0-8.271,6.729-15,15-15h300
				c8.272,0,15,6.729,15,15V297.5z"/>
			<path d="M240,357.5c0,30.327-24.673,55-55,55h-80c-41.355,0-75-33.645-75-75V7.5H0v330c0,57.897,47.103,105,105,105h80
				c46.869,0,85-38.131,85-85v-30h-30V357.5z"/>
		</g>
	</g>
</g>
<g>
</g>
<g>
</g>
<g>
</g>
<g>
</g>
<g>
</g>
<g>
</g>
<g>
</g>
<g>
</g>
<g>
</g>
<g>
</g>
<g>
</g>
<g>
</g>
<g>
</g>
<g>
</g>
<g>
</g>
</svg>
