<?xml version="1.0" encoding="iso-8859-1"?>
<!-- Generator: Adobe Illustrator 19.0.0, SVG Export Plug-In . SVG Version: 6.00 Build 0)  -->
<svg version="1.1" id="Layer_1" xmlns="http://www.w3.org/2000/svg" xmlns:xlink="http://www.w3.org/1999/xlink" x="0px" y="0px"
	 viewBox="0 0 450 450" style="enable-background:new 0 0 450 450;" xml:space="preserve">
<g id="XMLID_16_">
	<g>
		<g>
			<path d="M380,163.354V80h-15c-25.834,0-35-35.015-35-65V0h-90v15c0,8.271-6.729,15-15,15s-15-6.729-15-15V0h-90v15
				c0,29.985-9.167,65-35,65H70v83.354L6.301,450h437.398L380,163.354z M100,108.057c27.644-7.484,45.915-36.144,49.394-78.057
				h33.176c6.191,17.461,22.874,30,42.43,30c19.556,0,36.239-12.539,42.43-30h33.176c3.48,41.913,21.751,70.572,49.395,78.057V150
				H100V108.057z M255,210c8.271,0,15,6.729,15,15s-6.729,15-15,15s-15-6.729-15-15v-15H255z M97.032,180H195
				c-24.813,0-45,20.186-45,45c0,24.814,20.187,45,45,45c0.842,0,1.677-0.027,2.507-0.074l-26.214,58.982l27.414,12.184L225,281.933
				l26.293,59.159l27.414-12.184l-26.214-58.982c0.83,0.047,1.665,0.074,2.507,0.074c24.813,0,45-20.186,45-45
				c0-24.814-20.187-45-45-45h97.967l53.334,240H43.699L97.032,180z M210,210v15c0,8.271-6.729,15-15,15s-15-6.729-15-15
				s6.729-15,15-15H210z"/>
			<rect x="210" y="85" width="30" height="40"/>
		</g>
	</g>
</g>
<g>
</g>
<g>
</g>
<g>
</g>
<g>
</g>
<g>
</g>
<g>
</g>
<g>
</g>
<g>
</g>
<g>
</g>
<g>
</g>
<g>
</g>
<g>
</g>
<g>
</g>
<g>
</g>
<g>
</g>
</svg>
