<?xml version="1.0" encoding="iso-8859-1"?>
<!-- Generator: Adobe Illustrator 19.0.0, SVG Export Plug-In . SVG Version: 6.00 Build 0)  -->
<svg version="1.1" id="Layer_1" xmlns="http://www.w3.org/2000/svg" xmlns:xlink="http://www.w3.org/1999/xlink" x="0px" y="0px"
	 viewBox="0 0 450.255 450.255" style="enable-background:new 0 0 450.255 450.255;" xml:space="preserve">
<g id="XMLID_75_">
	<g>
		<g>
			<path d="M446.977,218.487C400.426,124.203,330.453,70.128,255,70.128c-70.674,0-136.539,47.443-182.854,130.934L0,128.914
				v192.426l72.146-72.146C118.46,332.685,184.325,380.128,255,380.128c75.454,0,145.427-54.075,191.977-148.359l3.278-6.641
				L446.977,218.487z M30,248.914v-47.574l23.787,23.787L30,248.914z M295.367,343.601c-13.195,4.309-26.702,6.527-40.367,6.527
				c-61.9,0-120.55-45.451-161.721-125c41.172-79.549,99.821-125,161.721-125c13.665,0,27.171,2.219,40.367,6.527
				C278.935,141.263,270,182.656,270,225.128C270,267.601,278.935,308.992,295.367,343.601z M322.775,331.401
				C308.024,300.677,300,263.506,300,225.128c0-38.378,8.024-75.548,22.775-106.273c35.81,20.335,68.275,56.676,93.946,106.273
				C391.051,274.726,358.586,311.065,322.775,331.401z"/>
			<rect x="345" y="210.13" width="30" height="30"/>
		</g>
	</g>
</g>
<g>
</g>
<g>
</g>
<g>
</g>
<g>
</g>
<g>
</g>
<g>
</g>
<g>
</g>
<g>
</g>
<g>
</g>
<g>
</g>
<g>
</g>
<g>
</g>
<g>
</g>
<g>
</g>
<g>
</g>
</svg>
