<?xml version="1.0" encoding="iso-8859-1"?>
<!-- Generator: Adobe Illustrator 19.0.0, SVG Export Plug-In . SVG Version: 6.00 Build 0)  -->
<svg version="1.1" id="Layer_1" xmlns="http://www.w3.org/2000/svg" xmlns:xlink="http://www.w3.org/1999/xlink" x="0px" y="0px"
	 viewBox="0 0 449.999 449.999" style="enable-background:new 0 0 449.999 449.999;" xml:space="preserve">
<g id="XMLID_220_">
	<g>
		<g>
			<path d="M133.306,0c-20.851,0-41.223,9.351-58.913,27.041l-3.09,3.088c-30.587,30.565-52.687,52.65-62.735,82.399
				c-10.255,30.365-6.584,66.277,12.275,120.081c8.532,24.341,21.141,65.07,32.265,101.005c7.328,23.67,13.656,44.112,17.661,56.128
				c7.02,21.059,20.086,60.257,74.231,60.257c35.841,0,65-29.159,65-65V87.647c0-23.268-7.756-45.1-21.839-61.477
				C173.646,9.294,154.166,0,133.306,0z M180,384.999c0,19.299-15.701,35-35,35c-27.827,0-36.609-12.261-45.77-39.743
				c-3.903-11.71-10.187-32.009-17.463-55.513c-11.201-36.183-23.896-77.194-32.611-102.058
				c-16.466-46.976-20.104-77.048-12.164-100.558c7.8-23.094,26.783-42.063,55.518-70.778l3.097-3.096
				C107.548,36.312,120.585,30,133.306,30C159.053,30,180,55.86,180,87.647V384.999z"/>
			<path d="M130,125.228v-37.58h-30v37.58c-17.459,6.192-30,22.865-30,42.42h30c0-8.271,6.729-15,15-15s15,6.729,15,15h30
				C160,148.093,147.458,131.42,130,125.228z"/>
			<path d="M441.431,112.528c-10.048-29.749-32.147-51.834-62.735-82.399l-3.09-3.088C357.915,9.351,337.543,0,316.693,0
				c-20.86,0-40.34,9.294-54.854,26.171C247.755,42.548,240,64.38,240,87.647v297.352c0,35.841,29.159,65,65,65
				c54.145,0,67.211-39.198,74.23-60.257c4.005-12.016,10.333-32.458,17.661-56.128c11.124-35.935,23.732-76.664,32.265-101.005
				C448.015,178.806,451.686,142.893,441.431,112.528z M400.844,222.686c-8.715,24.863-21.411,65.875-32.611,102.058
				c-7.276,23.504-13.56,43.803-17.463,55.513C341.609,407.74,332.827,420,305.001,420c-19.299,0-35-15.701-35-35V87.647
				C270,55.86,290.946,30,316.693,30c12.721,0,25.758,6.312,37.7,18.254l3.097,3.096c28.735,28.715,47.718,47.685,55.518,70.778
				C420.948,145.638,417.31,175.71,400.844,222.686z"/>
			<path d="M350,125.228v-37.58h-30v37.58c-17.459,6.192-30,22.865-30,42.42h30c0-8.271,6.729-15,15-15s15,6.729,15,15h30
				C380,148.093,367.458,131.42,350,125.228z"/>
		</g>
	</g>
</g>
<g>
</g>
<g>
</g>
<g>
</g>
<g>
</g>
<g>
</g>
<g>
</g>
<g>
</g>
<g>
</g>
<g>
</g>
<g>
</g>
<g>
</g>
<g>
</g>
<g>
</g>
<g>
</g>
<g>
</g>
</svg>
