<?xml version="1.0" encoding="iso-8859-1"?>
<!-- Generator: Adobe Illustrator 19.0.0, SVG Export Plug-In . SVG Version: 6.00 Build 0)  -->
<svg version="1.1" id="Layer_1" xmlns="http://www.w3.org/2000/svg" xmlns:xlink="http://www.w3.org/1999/xlink" x="0px" y="0px"
	 viewBox="0 0 450 450" style="enable-background:new 0 0 450 450;" xml:space="preserve">
<g id="XMLID_201_">
	<g>
		<g>
			<path d="M115,265c-13.294,0-25.714,7.992-34.076,21.927C73.88,298.668,70,313.965,70,330c0,16.035,3.88,31.332,10.924,43.073
				C89.286,387.008,101.706,395,115,395s25.714-7.992,34.076-21.927C156.12,361.332,160,346.035,160,330
				c0-16.035-3.88-31.332-10.924-43.073C140.714,272.992,128.294,265,115,265z M115,365c-5.288,0-15-13.288-15-35
				c0-21.712,9.712-35,15-35s15,13.288,15,35C130,351.712,120.288,365,115,365z"/>
			<path d="M229.99,50.556L230,50c0-24.813-20.187-45-45-45H45C20.187,5,0,25.187,0,50v0.277l10,270.008
				c0.06,32.764,10.577,63.644,29.63,86.982C59.493,431.6,86.26,445,115,445c33.169,0,60.653-13.206,79.479-38.19
				c16.65-22.096,25.472-52.012,25.521-86.526L229.99,50.556z M190.01,319.444L190,320c0,45.926-19.703,95-75,95
				c-41.355,0-75-42.617-75-95v-0.277L30.002,49.77C30.126,41.604,36.806,35,45,35h140c8.194,0,14.874,6.604,14.998,14.77
				L190.01,319.444z"/>
			<rect x="100" y="60" width="30" height="70"/>
			<rect x="55.002" y="59.649" transform="matrix(0.99 -0.1414 0.1414 0.99 -12.7299 10.8524)" width="30.001" height="70.714"/>
			
				<rect x="144.991" y="59.639" transform="matrix(-0.99 -0.1414 0.1414 -0.99 304.9438 211.6597)" width="30.001" height="70.714"/>
			<path d="M369.076,163.073C376.12,151.332,380,136.035,380,120c0-16.035-3.88-31.332-10.924-43.073
				C360.714,62.992,348.294,55,335,55s-25.714,7.992-34.076,21.927C293.88,88.668,290,103.965,290,120
				c0,16.035,3.88,31.332,10.924,43.073C309.286,177.008,321.706,185,335,185S360.714,177.008,369.076,163.073z M320,120
				c0-21.712,9.712-35,15-35c5.288,0,15,13.288,15,35s-9.712,35-15,35C329.712,155,320,141.712,320,120z"/>
			<path d="M440,129.715c-0.06-32.764-10.577-63.644-29.63-86.982C390.507,18.4,363.74,5,335,5c-33.169,0-60.653,13.206-79.48,38.19
				c-16.65,22.096-25.472,52.012-25.52,86.526l-9.99,269.728L220,400c0,24.814,20.187,45,45,45h140c24.813,0,45-20.186,45-45v-0.277
				L440,129.715z M405,415H265c-8.194,0-14.874-6.604-14.998-14.77l9.988-269.675L260,130c0-45.926,19.703-95,75-95
				c41.355,0,75,42.617,75,95v0.277l9.998,269.953C419.874,408.396,413.194,415,405,415z"/>
			<rect x="320" y="320" width="30" height="70"/>
			
				<rect x="344.637" y="340.027" transform="matrix(-0.1414 -0.99 0.99 -0.1414 82.2654 781.4012)" width="70.707" height="29.998"/>
			
				<rect x="274.982" y="319.628" transform="matrix(-0.99 -0.1414 0.1414 -0.99 526.8602 747.4048)" width="30.001" height="70.714"/>
		</g>
	</g>
</g>
<g>
</g>
<g>
</g>
<g>
</g>
<g>
</g>
<g>
</g>
<g>
</g>
<g>
</g>
<g>
</g>
<g>
</g>
<g>
</g>
<g>
</g>
<g>
</g>
<g>
</g>
<g>
</g>
<g>
</g>
</svg>
