<?xml version="1.0" encoding="iso-8859-1"?>
<!-- Generator: Adobe Illustrator 19.0.0, SVG Export Plug-In . SVG Version: 6.00 Build 0)  -->
<svg version="1.1" id="Layer_1" xmlns="http://www.w3.org/2000/svg" xmlns:xlink="http://www.w3.org/1999/xlink" x="0px" y="0px"
	 viewBox="0 0 430.001 430.001" style="enable-background:new 0 0 430.001 430.001;" xml:space="preserve">
<g id="XMLID_239_">
	<g>
		<path d="M430.001,215c0-41.975-11.884-82.113-34.485-116.877l10.402-10.402l-63.639-63.639l-10.404,10.404
			C297.112,11.884,256.972,0,214.998,0.001c-41.973,0-82.112,11.884-116.874,34.484L87.721,24.082l-63.64,63.639l10.404,10.404
			C11.883,132.888,0.001,173.025,0,214.999c0,41.974,11.883,82.113,34.485,116.876l-10.404,10.404l63.64,63.639l10.403-10.403
			C132.887,418.117,173.026,430,215,430c0.003,0-0.002,0,0.001,0c41.97,0,82.113-11.884,116.874-34.484l10.405,10.403l63.638-63.64
			l-10.402-10.402C418.117,297.113,430.001,256.974,430.001,215z M342.28,66.507l21.213,21.213l-63.64,63.641l-21.214-21.214
			L342.28,66.507z M296.32,239.746l-56.61,56.61c-16.101,4.891-33.32,4.891-49.42,0l-56.645-56.646
			c-4.891-16.102-4.891-33.321,0-49.422l56.646-56.645c16.099-4.89,33.318-4.89,49.419,0.001l56.622,56.623
			C301.2,206.374,301.179,223.673,296.32,239.746z M310.082,56.279l-52.053,52.052c-27.584-11.132-58.475-11.133-86.059,0
			l-52.053-52.053C178.004,21.562,251.998,21.563,310.082,56.279z M87.721,66.508l63.64,63.64l-21.213,21.214l-63.64-63.641
			L87.721,66.508z M56.278,119.918l52.053,52.053c-11.131,27.585-11.131,58.475,0,86.06l-52.053,52.052
			C21.56,251.997,21.56,178.004,56.278,119.918z M87.721,363.493L66.508,342.28l63.64-63.64l21.213,21.214L87.721,363.493z
			 M119.918,373.722l52.053-52.052c13.792,5.566,28.407,8.357,43.028,8.357c14.618,0,29.237-2.792,43.029-8.357l52.054,52.053
			C251.997,408.44,178.003,408.44,119.918,373.722z M342.278,363.493l-63.64-63.64l21.214-21.214l63.64,63.64L342.278,363.493z
			 M321.66,258.022c11.033-27.455,11.084-58.516,0.008-86.05l52.054-52.055c34.718,58.085,34.718,132.08,0,190.166L321.66,258.022z"
			/>
	</g>
</g>
<g>
</g>
<g>
</g>
<g>
</g>
<g>
</g>
<g>
</g>
<g>
</g>
<g>
</g>
<g>
</g>
<g>
</g>
<g>
</g>
<g>
</g>
<g>
</g>
<g>
</g>
<g>
</g>
<g>
</g>
</svg>
