<?xml version="1.0" encoding="iso-8859-1"?>
<!-- Generator: Adobe Illustrator 19.0.0, SVG Export Plug-In . SVG Version: 6.00 Build 0)  -->
<svg version="1.1" id="Layer_1" xmlns="http://www.w3.org/2000/svg" xmlns:xlink="http://www.w3.org/1999/xlink" x="0px" y="0px"
	 viewBox="0 0 455.453 455.453" style="enable-background:new 0 0 455.453 455.453;" xml:space="preserve">
<g id="XMLID_24_">
	<g>
		<path d="M444.818,41.796c-14.165-14.166-32.999-21.967-53.033-21.967c-20.033,0-38.867,7.801-53.033,21.967l-31.821,31.821
			L264.505,31.19l-0.084,0.084C210.396-18.351,119.887-8.035,55.911,55.94C24.579,87.271,5.031,126.146,0.868,165.403
			c-4.064,38.314,6.711,73.273,30.378,99.049l-0.085,0.084l42.427,42.426l-31.82,31.82c-14.166,14.165-21.967,32.999-21.968,53.032
			c-0.001,20.033,7.801,38.868,21.967,53.033l10.606,10.606l403.052-403.05L444.818,41.796z M264.506,73.618l21.213,21.213
			L94.801,285.748l-21.213-21.213L264.506,73.618z M52.48,243.217c-17.146-19.278-24.863-45.577-21.78-74.65
			c3.442-32.455,19.929-64.92,46.423-91.414c26.495-26.494,58.96-42.98,91.414-46.423c29.074-3.085,55.373,4.632,74.651,21.778
			L52.48,243.217z M54.176,411.225c-2.864-5.982-4.375-12.58-4.375-19.411c0-12.02,4.681-23.32,13.181-31.819L359.966,63.009
			c8.499-8.499,19.8-13.18,31.82-13.18c6.83,0,13.427,1.511,19.411,4.376L54.176,411.225z"/>
	</g>
</g>
<g>
</g>
<g>
</g>
<g>
</g>
<g>
</g>
<g>
</g>
<g>
</g>
<g>
</g>
<g>
</g>
<g>
</g>
<g>
</g>
<g>
</g>
<g>
</g>
<g>
</g>
<g>
</g>
<g>
</g>
</svg>
