<?xml version="1.0" encoding="iso-8859-1"?>
<!-- Generator: Adobe Illustrator 19.0.0, SVG Export Plug-In . SVG Version: 6.00 Build 0)  -->
<svg version="1.1" id="Layer_1" xmlns="http://www.w3.org/2000/svg" xmlns:xlink="http://www.w3.org/1999/xlink" x="0px" y="0px"
	 viewBox="0 0 435.773 435.773" style="enable-background:new 0 0 435.773 435.773;" xml:space="preserve">
<g id="XMLID_179_">
	<g>
		<g>
			<path d="M402.089,33.685C380.368,11.964,351.489,0,320.772,0c-30.717,0-59.597,11.963-81.316,33.684L30.858,242.281
				l49.497,49.497L13.18,358.953C4.682,367.452,0,378.753,0,390.773c0,12.02,4.681,23.32,13.181,31.82
				c8.5,8.499,19.801,13.179,31.82,13.179c12.02,0,23.32-4.681,31.818-13.18l67.176-67.175l49.497,49.497l208.597-208.597
				c21.721-21.72,33.684-50.599,33.684-81.316C435.773,84.284,423.81,55.405,402.089,33.685z M55.605,401.379
				c-2.832,2.833-6.599,4.393-10.604,4.393c-4.007,0-7.774-1.56-10.607-4.393S30,394.779,30,390.773
				c0-4.007,1.56-7.773,4.394-10.606l67.175-67.176l21.214,21.214L55.605,401.379z M380.876,175.105L193.492,362.49l-28.284-28.284
				l-63.64-63.64l-28.284-28.284L260.668,54.897C276.723,38.842,298.067,30,320.772,30c22.704,0,44.05,8.842,60.104,24.896
				c16.055,16.055,24.896,37.4,24.896,60.105C405.772,137.706,396.931,159.05,380.876,175.105z"/>
			<rect x="101.776" y="156.57" transform="matrix(0.7071 -0.7071 0.7071 0.7071 -56.3621 207.0704)" width="239.999" height="30"/>
			<rect x="249.204" y="94" transform="matrix(-0.7071 -0.7071 0.7071 -0.7071 299.7033 552.1403)" width="30" height="239.999"/>
		</g>
	</g>
</g>
<g>
</g>
<g>
</g>
<g>
</g>
<g>
</g>
<g>
</g>
<g>
</g>
<g>
</g>
<g>
</g>
<g>
</g>
<g>
</g>
<g>
</g>
<g>
</g>
<g>
</g>
<g>
</g>
<g>
</g>
</svg>
