<?xml version="1.0" encoding="iso-8859-1"?>
<!-- Generator: Adobe Illustrator 19.0.0, SVG Export Plug-In . SVG Version: 6.00 Build 0)  -->
<svg version="1.1" id="Layer_1" xmlns="http://www.w3.org/2000/svg" xmlns:xlink="http://www.w3.org/1999/xlink" x="0px" y="0px"
	 viewBox="0 0 433.875 433.875" style="enable-background:new 0 0 433.875 433.875;" xml:space="preserve">
<g id="XMLID_45_">
	<g>
		<path d="M433.523,125.74c-2.221-32.517-16.15-63.132-39.222-86.203C368.806,14.041,334.908,0,298.852,0
			c-26.189,0-51.221,7.359-72.947,21.367c-10.44-4.411-21.737-6.714-33.154-6.714c-22.695,0-44.031,8.837-60.079,24.884
			c-30.493,30.494-32.905,78.573-7.282,111.879C107.589,187.037,40.977,318.98,11.018,359.412
			c-15.164,20.467-14.569,45.946,1.447,61.965c8.178,8.176,18.643,12.498,30.264,12.498c10.819,0,22.076-3.926,31.698-11.055
			c40.428-29.955,172.349-96.557,207.986-114.366c14.784,11.408,32.803,17.609,51.785,17.609c22.705,0,44.05-8.843,60.104-24.898
			c24.605-24.604,31.488-61.754,18.167-93.245C428.067,183.645,435.509,154.808,433.523,125.74z M56.566,398.716
			c-4.425,3.279-9.468,5.159-13.837,5.159c-3.592,0-6.553-1.215-9.051-3.713c-6.578-6.578-3.333-16.442,1.445-22.891
			c29.423-39.71,89.157-156.745,112.28-202.795l55.98,55.98l55.98,55.979C213.312,309.56,96.277,369.293,56.566,398.716z
			 M383.11,197.65l-5.848,7.842l4.817,8.514c12.119,21.416,8.422,48.535-8.992,65.947c-10.388,10.389-24.2,16.11-38.891,16.11
			s-28.503-5.722-38.891-16.11l-141.421-141.42c-21.444-21.445-21.444-56.338-0.001-77.783
			c10.381-10.38,24.183-16.097,38.865-16.097c9.503,0,18.868,2.457,27.082,7.105l8.513,4.817l7.842-5.848
			C254.372,37.168,276.04,30,298.852,30c28.043,0,54.408,10.921,74.237,30.75C409.701,97.362,414.009,156.217,383.11,197.65z"/>
	</g>
</g>
<g>
</g>
<g>
</g>
<g>
</g>
<g>
</g>
<g>
</g>
<g>
</g>
<g>
</g>
<g>
</g>
<g>
</g>
<g>
</g>
<g>
</g>
<g>
</g>
<g>
</g>
<g>
</g>
<g>
</g>
</svg>
