<?xml version="1.0" encoding="iso-8859-1"?>
<!-- Generator: Adobe Illustrator 19.0.0, SVG Export Plug-In . SVG Version: 6.00 Build 0)  -->
<svg version="1.1" id="Layer_1" xmlns="http://www.w3.org/2000/svg" xmlns:xlink="http://www.w3.org/1999/xlink" x="0px" y="0px"
	 viewBox="0 0 450 450" style="enable-background:new 0 0 450 450;" xml:space="preserve">
<g id="XMLID_294_">
	<g>
		<g>
			<path d="M437.636,279.488l0.018-0.018l-0.793-0.794c-0.037-0.037-0.074-0.075-0.112-0.112L173.114,14.579L162.5,25.193
				c-28.201,28.201-42.5,57.94-42.5,88.388s14.299,60.187,42.5,88.388l63.453,63.453H45c-24.813,0-45,20.187-45,45v80
				c0,24.813,20.187,45,45,45h360c24.813,0,45-20.187,45-45v-80C450,298.447,445.29,287.559,437.636,279.488z M183.713,180.756
				C161.343,158.386,150,135.785,150,113.581c0-18.545,7.914-37.369,23.557-56.104l207.669,207.945H268.379L183.713,180.756z
				 M420,390.423c0,8.271-6.729,15-15,15H45c-8.271,0-15-6.729-15-15v-80c0-8.271,6.729-15,15-15h360
				c4.015,0,7.658,1.595,10.353,4.172l0.481,0.482c2.574,2.694,4.166,6.334,4.166,10.346V390.423z"/>
			<path d="M365,325.423c-13.785,0-25,11.215-25,25c0,13.785,11.215,25,25,25c13.785,0,25-11.215,25-25
				C390,336.637,378.785,325.423,365,325.423z M365,355.423c-2.757,0-5-2.243-5-5c0-2.757,2.243-5,5-5c2.757,0,5,2.243,5,5
				C370,353.178,367.757,355.423,365,355.423z"/>
			<rect x="75" y="335.423" width="220" height="30"/>
		</g>
	</g>
</g>
<g>
</g>
<g>
</g>
<g>
</g>
<g>
</g>
<g>
</g>
<g>
</g>
<g>
</g>
<g>
</g>
<g>
</g>
<g>
</g>
<g>
</g>
<g>
</g>
<g>
</g>
<g>
</g>
<g>
</g>
</svg>
