<?xml version="1.0" encoding="iso-8859-1"?>
<!-- Generator: Adobe Illustrator 19.0.0, SVG Export Plug-In . SVG Version: 6.00 Build 0)  -->
<svg version="1.1" id="Layer_1" xmlns="http://www.w3.org/2000/svg" xmlns:xlink="http://www.w3.org/1999/xlink" x="0px" y="0px"
	 viewBox="0 0 450 450" style="enable-background:new 0 0 450 450;" xml:space="preserve">
<g id="XMLID_72_">
	<g>
		<path d="M384.099,65.901C341.602,23.404,285.1,0,225,0C164.9,0,108.398,23.404,65.901,65.901S0,164.9,0,225
			c0,41.355,33.645,75,75,75h40c5.514,0,10,4.486,10,10c0,5.514-4.486,10-10,10c-22.056,0-40,17.944-40,40c0,22.056,17.944,40,40,40
			c5.514,0,10,4.486,10,10c0,5.514-4.486,10-10,10v30c22.056,0,40-17.944,40-40c0-22.056-17.944-40-40-40c-5.514,0-10-4.486-10-10
			c0-5.514,4.486-10,10-10c22.056,0,40-17.944,40-40c0-3.451-0.44-6.803-1.266-10H220c5.514,0,10,4.486,10,10
			c0,5.514-4.486,10-10,10c-22.056,0-40,17.944-40,40c0,22.056,17.944,40,40,40c5.514,0,10,4.486,10,10c0,5.514-4.486,10-10,10v30
			c22.056,0,40-17.944,40-40c0-22.056-17.944-40-40-40c-5.514,0-10-4.486-10-10c0-5.514,4.486-10,10-10c22.056,0,40-17.944,40-40
			c0-3.451-0.44-6.803-1.266-10H330c5.514,0,10,4.486,10,10c0,5.514-4.486,10-10,10c-22.056,0-40,17.944-40,40
			c0,22.056,17.944,40,40,40c5.514,0,10,4.486,10,10c0,5.514-4.486,10-10,10v30c22.056,0,40-17.944,40-40c0-22.056-17.944-40-40-40
			c-5.514,0-10-4.486-10-10c0-5.514,4.486-10,10-10c22.056,0,40-17.944,40-40c0-3.451-0.44-6.803-1.266-10H375
			c41.355,0,75-33.645,75-75C450,164.9,426.596,108.398,384.099,65.901z M375,270H75c-24.813,0-45-20.186-45-45
			c0-107.523,87.477-195,195-195s195,87.477,195,195C420,249.814,399.813,270,375,270z"/>
	</g>
</g>
<g>
</g>
<g>
</g>
<g>
</g>
<g>
</g>
<g>
</g>
<g>
</g>
<g>
</g>
<g>
</g>
<g>
</g>
<g>
</g>
<g>
</g>
<g>
</g>
<g>
</g>
<g>
</g>
<g>
</g>
</svg>
