<?xml version="1.0" encoding="iso-8859-1"?>
<!-- Generator: Adobe Illustrator 19.0.0, SVG Export Plug-In . SVG Version: 6.00 Build 0)  -->
<svg version="1.1" id="Layer_1" xmlns="http://www.w3.org/2000/svg" xmlns:xlink="http://www.w3.org/1999/xlink" x="0px" y="0px"
	 viewBox="0 0 450 450" style="enable-background:new 0 0 450 450;" xml:space="preserve">
<g id="XMLID_145_">
	<g>
		<g>
			<path d="M350.001,340h-10V160h40V95c0-24.813-20.187-45-45-45h-46.767c-6.792-28.631-32.556-50-63.233-50
				s-56.442,21.369-63.233,50h-46.767c-24.813,0-45,20.187-45,45v65h40v180h-10c-16.542,0-30,13.458-30,30v80h310v-80
				C380.001,353.458,366.543,340,350.001,340z M240.002,33.384c7.264,3.461,13.155,9.351,16.616,16.616h-16.616V33.384z
				 M210.001,33.384V50h-16.616C196.846,42.735,202.737,36.845,210.001,33.384z M100.001,130c0,0,0-35,0-35c0-8.271,6.729-15,15-15
				h220c8.271,0,15,6.729,15,15v35H100.001z M140.002,170h40.145c0.687,35.393,3.797,68.333,8.932,94.008
				C194.293,290.077,203.088,320,225.001,320c21.913,0,30.708-29.923,35.922-55.992c5.135-25.675,8.245-58.615,8.932-94.008h40.147
				v170h-170V170z M210.163,170h29.678c-0.593,28.891-2.881,56.379-6.602,78.648c-2.816,16.855-5.829,27.313-8.237,33.674
				c-2.409-6.36-5.421-16.819-8.237-33.674C213.044,226.379,210.755,198.891,210.163,170z M350.001,420h-250v-50h250V420z"/>
			<rect x="5.001" y="230" width="70" height="30"/>
			<rect x="11.299" y="277.874" transform="matrix(0.9659 -0.2588 0.2588 0.9659 -74.2205 21.9606)" width="69.997" height="30"/>
			
				<rect x="368.701" y="277.898" transform="matrix(-0.9659 -0.2588 0.2588 -0.9659 717.8431 680.2966)" width="69.999" height="29.999"/>
			<rect x="374.997" y="230.004" width="70.002" height="30"/>
			
				<rect x="368.708" y="182.126" transform="matrix(-0.9659 0.2588 -0.2588 -0.9659 844.6784 283.0515)" width="70" height="29.999"/>
			<rect x="11.315" y="182.109" transform="matrix(0.966 0.2587 -0.2587 0.966 52.5716 -5.2714)" width="69.999" height="29.998"/>
		</g>
	</g>
</g>
<g>
</g>
<g>
</g>
<g>
</g>
<g>
</g>
<g>
</g>
<g>
</g>
<g>
</g>
<g>
</g>
<g>
</g>
<g>
</g>
<g>
</g>
<g>
</g>
<g>
</g>
<g>
</g>
<g>
</g>
</svg>
