<?xml version="1.0" encoding="iso-8859-1"?>
<!-- Generator: Adobe Illustrator 19.0.0, SVG Export Plug-In . SVG Version: 6.00 Build 0)  -->
<svg version="1.1" id="Layer_1" xmlns="http://www.w3.org/2000/svg" xmlns:xlink="http://www.w3.org/1999/xlink" x="0px" y="0px"
	 viewBox="0 0 458.588 458.588" style="enable-background:new 0 0 458.588 458.588;" xml:space="preserve">
<g id="XMLID_138_">
	<g>
		<g>
			<path d="M267.67,0l-64.496,64.496v84.853L0,352.523l106.066,106.065l203.172-203.173l84.853-0.001l64.496-64.495L267.67,0z
				 M106.067,416.163l-63.641-63.64l175.748-175.748l63.639,63.641L106.067,416.163z M309.237,225.416l-76.064-76.066v-42.428
				l118.492,118.494H309.237z M387.88,219.202L239.387,70.709l28.283-28.283l148.493,148.493L387.88,219.202z"/>
			<path d="M186.354,229.81c-5.666,5.665-8.786,13.198-8.786,21.212c-0.001,8.015,3.12,15.549,8.788,21.216
				c5.666,5.664,13.199,8.784,21.211,8.784c8.013,0,15.547-3.12,21.213-8.786c5.667-5.666,8.788-13.199,8.788-21.214
				s-3.121-15.548-8.787-21.213c-5.666-5.667-13.2-8.787-21.213-8.787C199.554,221.021,192.02,224.143,186.354,229.81z"/>
		</g>
	</g>
</g>
<g>
</g>
<g>
</g>
<g>
</g>
<g>
</g>
<g>
</g>
<g>
</g>
<g>
</g>
<g>
</g>
<g>
</g>
<g>
</g>
<g>
</g>
<g>
</g>
<g>
</g>
<g>
</g>
<g>
</g>
</svg>
