<?xml version="1.0" encoding="iso-8859-1"?>
<!-- Generator: Adobe Illustrator 19.0.0, SVG Export Plug-In . SVG Version: 6.00 Build 0)  -->
<svg version="1.1" id="Layer_1" xmlns="http://www.w3.org/2000/svg" xmlns:xlink="http://www.w3.org/1999/xlink" x="0px" y="0px"
	 viewBox="0 0 440 440" style="enable-background:new 0 0 440 440;" xml:space="preserve">
<g id="XMLID_229_">
	<g>
		<path d="M410,150c-26.43,0-42.595-10.46-52.413-33.915C346.495,89.59,345,50.118,345,15V0h-90v15c0,19.299-15.701,35-35,35
			s-35-15.701-35-35V0H95v15c0,35.118-1.495,74.59-12.587,101.085C72.595,139.54,56.43,150,30,150H15v290h410V150H410z M205,410H45
			v-40h160V410z M205,340H45v-30h160V340z M205,280H45v-30h160V280z M205,220H45v-40.962c30.658-4.104,52.513-21.333,65.087-51.369
			c11.441-27.332,14.265-63.6,14.804-97.669h31.856c5.645,23.816,24.438,42.591,48.253,48.239V220z M395,410H235v-40h160V410z
			 M395,340H235v-30h160V340z M395,280H235v-30h160V280z M395.001,220H235V78.239c23.815-5.648,42.607-24.423,48.253-48.239h31.857
			c0.539,34.069,3.362,70.337,14.804,97.669c12.574,30.036,34.429,47.265,65.087,51.369V220z"/>
	</g>
</g>
<g>
</g>
<g>
</g>
<g>
</g>
<g>
</g>
<g>
</g>
<g>
</g>
<g>
</g>
<g>
</g>
<g>
</g>
<g>
</g>
<g>
</g>
<g>
</g>
<g>
</g>
<g>
</g>
<g>
</g>
</svg>
