<?xml version="1.0" encoding="iso-8859-1"?>
<!-- Generator: Adobe Illustrator 19.0.0, SVG Export Plug-In . SVG Version: 6.00 Build 0)  -->
<svg version="1.1" id="Layer_1" xmlns="http://www.w3.org/2000/svg" xmlns:xlink="http://www.w3.org/1999/xlink" x="0px" y="0px"
	 viewBox="0 0 450 450" style="enable-background:new 0 0 450 450;" xml:space="preserve">
<g id="XMLID_124_">
	<g>
		<path d="M345,200v-60h-14.301c13.066-9.514,21.581-24.916,21.581-42.279c0-13.499-5.139-26.316-14.471-36.091L300,23.775
			l-37.567,37.607l-0.235,0.24c-9.335,9.775-14.477,22.595-14.477,36.098c0,17.363,8.515,32.766,21.581,42.279H255v60h-12.58
			c-4.527-12.764-14.656-22.893-27.42-27.42V0H80C55.187,0,35,20.187,35,45v140c0,24.814,20.187,45,45,45h77.58
			c4.527,12.764,14.656,22.893,27.42,27.42V450h230V200H345z M283.791,82.45L300,66.225l16.212,16.229
			c3.914,4.153,6.067,9.569,6.067,15.267c0,12.285-9.995,22.279-22.28,22.279c-12.285,0-22.28-9.994-22.28-22.279
			C277.72,92.021,279.875,86.604,283.791,82.45z M315,170v30h-30v-30H315z M157.58,200H80c-8.271,0-15-6.729-15-15V45
			c0-8.271,6.729-15,15-15h105v142.58C172.236,177.107,162.107,187.236,157.58,200z M200,230c-8.271,0-15-6.729-15-15
			s6.729-15,15-15s15,6.729,15,15S208.271,230,200,230z M385,420H215v-30h170V420z M385,360H215V257.42
			c12.764-4.527,22.893-14.656,27.42-27.42H255h90h40V360z"/>
	</g>
</g>
<g>
</g>
<g>
</g>
<g>
</g>
<g>
</g>
<g>
</g>
<g>
</g>
<g>
</g>
<g>
</g>
<g>
</g>
<g>
</g>
<g>
</g>
<g>
</g>
<g>
</g>
<g>
</g>
<g>
</g>
</svg>
