<?xml version="1.0" encoding="iso-8859-1"?>
<!-- Generator: Adobe Illustrator 19.0.0, SVG Export Plug-In . SVG Version: 6.00 Build 0)  -->
<svg version="1.1" id="Layer_1" xmlns="http://www.w3.org/2000/svg" xmlns:xlink="http://www.w3.org/1999/xlink" x="0px" y="0px"
	 viewBox="0 0 450 450" style="enable-background:new 0 0 450 450;" xml:space="preserve">
<g id="XMLID_186_">
	<g>
		<g>
			<path d="M78.967,0L100,315.498V450h250V315.498L371.033,0H78.967z M320,420H130v-30h190V420z M320,360h-63.384
				c-5.628-11.814-17.683-20-31.616-20s-25.988,8.186-31.616,20H130v-30h190V360z M320.967,300H129.033l-18-270h227.934L320.967,300
				z"/>
			<path d="M180,175c0,24.814,20.187,45,45,45c24.814,0,45-20.186,45-45c0-24.814-20.186-45-45-45C200.187,130,180,150.186,180,175z
				 M225,160c8.271,0,15,6.729,15,15s-6.729,15-15,15s-15-6.729-15-15S216.729,160,225,160z"/>
			<rect x="285" y="160" width="30" height="30"/>
			<rect x="247.495" y="95.043" transform="matrix(0.866 0.5 -0.5 0.866 90.1919 -116.5064)" width="29.999" height="29.999"/>
			<rect x="172.501" y="95.042" transform="matrix(0.5 0.866 -0.866 0.5 189.0468 -107.3593)" width="29.999" height="29.999"/>
			<rect x="134.999" y="160" width="29.999" height="30"/>
			<rect x="172.496" y="224.947" transform="matrix(0.866 0.5 -0.5 0.866 145.0964 -61.6016)" width="29.999" height="29.998"/>
			<rect x="247.484" y="224.957" transform="matrix(-0.5 -0.866 0.866 -0.5 185.9198 587.2524)" width="29.997" height="29.999"/>
		</g>
	</g>
</g>
<g>
</g>
<g>
</g>
<g>
</g>
<g>
</g>
<g>
</g>
<g>
</g>
<g>
</g>
<g>
</g>
<g>
</g>
<g>
</g>
<g>
</g>
<g>
</g>
<g>
</g>
<g>
</g>
<g>
</g>
</svg>
