<?xml version="1.0" encoding="iso-8859-1"?>
<!-- Generator: Adobe Illustrator 19.0.0, SVG Export Plug-In . SVG Version: 6.00 Build 0)  -->
<svg version="1.1" id="Layer_1" xmlns="http://www.w3.org/2000/svg" xmlns:xlink="http://www.w3.org/1999/xlink" x="0px" y="0px"
	 viewBox="0 0 450 450" style="enable-background:new 0 0 450 450;" xml:space="preserve">
<g id="XMLID_414_">
	<g>
		<g>
			<path d="M295,74.66l-140.001-30L0,77.873v330.681l154.999-33.214l140.001,30l155-33.214V41.445L295,74.66z M420,347.874
				l-110,23.571V190h-30v181.445l-110-23.571V320h-30v27.874L30,371.445V102.126l110-23.571V260h30V78.555l110,23.571V130h30
				v-27.874l110-23.571V347.874z"/>
			<path d="M85,265c-13.785,0-25,11.215-25,25c0,13.785,11.215,25,25,25c13.785,0,25-11.215,25-25C110,276.215,98.785,265,85,265z"
				/>
			<path d="M365,185c13.785,0,25-11.215,25-25c0-13.785-11.215-25-25-25c-13.785,0-25,11.215-25,25C340,173.785,351.215,185,365,185
				z"/>
			<rect x="115.714" y="275" width="31.429" height="30"/>
			<rect x="162.857" y="275" width="31.428" height="30"/>
			<rect x="210" y="275" width="30" height="30"/>
			<rect x="210" y="189.286" width="30" height="28.572"/>
			<rect x="210" y="232.143" width="30" height="28.571"/>
			<rect x="210" y="145" width="30" height="30"/>
			<rect x="302.857" y="145" width="31.428" height="30"/>
			<rect x="255.714" y="145" width="31.429" height="30"/>
		</g>
	</g>
</g>
<g>
</g>
<g>
</g>
<g>
</g>
<g>
</g>
<g>
</g>
<g>
</g>
<g>
</g>
<g>
</g>
<g>
</g>
<g>
</g>
<g>
</g>
<g>
</g>
<g>
</g>
<g>
</g>
<g>
</g>
</svg>
