<?xml version="1.0" encoding="iso-8859-1"?>
<!-- Generator: Adobe Illustrator 19.0.0, SVG Export Plug-In . SVG Version: 6.00 Build 0)  -->
<svg version="1.1" id="Layer_1" xmlns="http://www.w3.org/2000/svg" xmlns:xlink="http://www.w3.org/1999/xlink" x="0px" y="0px"
	 viewBox="0 0 466.225 466.225" style="enable-background:new 0 0 466.225 466.225;" xml:space="preserve">
<g id="XMLID_283_">
	<g>
		<path d="M327.834,94.83L233.112,0l-94.471,94.572l-0.234,0.241c-23.392,24.49-36.274,56.605-36.274,90.432
			c0,60.105,40.696,110.876,95.979,126.224v119.756c0,19.299,15.701,35,35,35s35-15.701,35-35V311.469
			c55.283-15.348,95.98-66.12,95.98-126.224C364.092,151.43,351.215,119.32,327.834,94.83z M238.112,431.225c0,2.757-2.243,5-5,5
			s-5-2.243-5-5V316.12c1.66,0.063,8.34,0.063,10,0V431.225z M233.112,256.225c-7.081,0-15-10.692-15-25c0-14.309,7.919-25,15-25
			s15,10.691,15,25C248.112,245.534,240.193,256.225,233.112,256.225z M266.325,193.94c-8.443-11.259-20.55-17.716-33.213-17.716
			c-12.663,0-24.77,6.457-33.213,17.716c-7.602,10.134-11.787,23.376-11.787,37.284c0,0.537,0.018,1.072,0.03,1.607
			c-6.31-8.95-10.03-19.849-10.03-31.607c0-14.145,5.369-27.581,15.123-37.851l39.877-39.919l39.883,39.926
			c9.749,10.27,15.117,23.704,15.117,37.844c0,11.758-3.721,22.657-10.03,31.607c0.013-0.535,0.03-1.07,0.03-1.607
			C278.112,217.316,273.926,204.075,266.325,193.94z M268.112,279.967v-1.314c29.453-13.367,50-43.034,50-77.429
			c0-21.946-8.355-42.784-23.528-58.677l-61.472-61.542l-61.226,61.291l-0.234,0.241c-15.18,15.892-23.54,36.734-23.54,58.688
			c0,34.395,20.547,64.062,50,77.429v1.314c-38.48-14.264-65.98-51.341-65.98-94.722c0-26.017,9.891-50.725,27.855-69.592
			l73.125-73.204l73.136,73.215c17.957,18.868,27.845,43.572,27.845,69.58C334.092,228.626,306.593,265.703,268.112,279.967z"/>
	</g>
</g>
<g>
</g>
<g>
</g>
<g>
</g>
<g>
</g>
<g>
</g>
<g>
</g>
<g>
</g>
<g>
</g>
<g>
</g>
<g>
</g>
<g>
</g>
<g>
</g>
<g>
</g>
<g>
</g>
<g>
</g>
</svg>
