<?xml version="1.0" encoding="iso-8859-1"?>
<!-- Generator: Adobe Illustrator 19.0.0, SVG Export Plug-In . SVG Version: 6.00 Build 0)  -->
<svg version="1.1" id="Layer_1" xmlns="http://www.w3.org/2000/svg" xmlns:xlink="http://www.w3.org/1999/xlink" x="0px" y="0px"
	 viewBox="0 0 443.681 443.681" style="enable-background:new 0 0 443.681 443.681;" xml:space="preserve">
<g id="XMLID_171_">
	<g>
		<path d="M321.84,119.535l-29.151,75.793L221.84,7.362l-70.849,187.966l-29.151-75.793L0,436.32h443.681L321.84,119.535z
			 M321.84,203.105l15.834,41.168l-19.272,19.272l-9.804-26.011L321.84,203.105z M221.84,92.421l56.853,150.834l-26.852,26.852
			l-30-30.037l-30,30.037l-26.853-26.852L221.84,92.421z M121.841,203.106l13.242,34.429l-9.804,26.011l-19.272-19.272
			L121.841,203.106z M43.681,406.32l50.541-131.406l19.443,19.443L71.464,406.32H43.681z M103.524,406.32l39.606-105.077
			l18.71-18.71l30,30l30-30l30,30l30-30l18.71,18.71l39.606,105.077H103.524z M330.016,294.357l19.443-19.443L400,406.32h-27.783
			L330.016,294.357z"/>
	</g>
</g>
<g>
</g>
<g>
</g>
<g>
</g>
<g>
</g>
<g>
</g>
<g>
</g>
<g>
</g>
<g>
</g>
<g>
</g>
<g>
</g>
<g>
</g>
<g>
</g>
<g>
</g>
<g>
</g>
<g>
</g>
</svg>
