<?xml version="1.0" encoding="iso-8859-1"?>
<!-- Generator: Adobe Illustrator 19.0.0, SVG Export Plug-In . SVG Version: 6.00 Build 0)  -->
<svg version="1.1" id="Layer_1" xmlns="http://www.w3.org/2000/svg" xmlns:xlink="http://www.w3.org/1999/xlink" x="0px" y="0px"
	 viewBox="0 0 440 440" style="enable-background:new 0 0 440 440;" xml:space="preserve">
<g id="XMLID_102_">
	<g>
		<path d="M372.028,77.972C334.976,40.92,286.781,19.067,235,15.521V0h-30v15.521c-51.781,3.546-99.976,25.398-137.028,62.45
			C27.364,118.58,5,172.571,5,230v15h200v195h30V245h200v-15C435,172.571,412.636,118.58,372.028,77.972z M135.19,215H35.602
			c6.307-78.227,61.495-142.859,134.905-163.267c-4.916,8.606-9.688,19.106-14.163,31.89
			C143.837,119.359,136.438,165.547,135.19,215z M165.199,215c1.215-46.086,8.017-88.764,19.462-121.466
			C197.199,57.711,211.534,45,220,45s22.801,12.711,35.339,48.534c11.445,32.702,18.247,75.38,19.462,121.466H165.199z M304.81,215
			c-1.248-49.453-8.647-95.641-21.155-131.377c-4.474-12.783-9.247-23.283-14.163-31.89C342.902,72.14,398.091,136.773,404.397,215
			H304.81z"/>
	</g>
</g>
<g>
</g>
<g>
</g>
<g>
</g>
<g>
</g>
<g>
</g>
<g>
</g>
<g>
</g>
<g>
</g>
<g>
</g>
<g>
</g>
<g>
</g>
<g>
</g>
<g>
</g>
<g>
</g>
<g>
</g>
</svg>
