<?xml version="1.0" encoding="iso-8859-1"?>
<!-- Generator: Adobe Illustrator 19.0.0, SVG Export Plug-In . SVG Version: 6.00 Build 0)  -->
<svg version="1.1" id="Layer_1" xmlns="http://www.w3.org/2000/svg" xmlns:xlink="http://www.w3.org/1999/xlink" x="0px" y="0px"
	 viewBox="0 0 457.059 457.059" style="enable-background:new 0 0 457.059 457.059;" xml:space="preserve">
<g id="XMLID_274_">
	<g>
		<path d="M228.53,0L23.616,387.059H183.53v70h90v-70h159.913L228.53,0z M228.53,64.119l50.79,95.937l-20.79,20.79l-30-30.037
			l-30,30.037l-20.791-20.79L228.53,64.119z M163.053,187.796l35.477,35.477l30-30.001l30,30.001l35.477-35.477l44.16,83.414
			l-19.637,19.636l-30-30.037l-30,30.037l-30-30.037l-30,30.037l-30-30.037l-30,30.037l-19.637-19.636L163.053,187.796z
			 M243.53,427.059h-30v-40h30V427.059z M183.53,357.059H73.443l30.764-58.109l34.323,34.323l30-30l30,30l30-30l30,30l30-30l30,30
			l34.323-34.323l30.764,58.109H273.53H183.53z"/>
	</g>
</g>
<g>
</g>
<g>
</g>
<g>
</g>
<g>
</g>
<g>
</g>
<g>
</g>
<g>
</g>
<g>
</g>
<g>
</g>
<g>
</g>
<g>
</g>
<g>
</g>
<g>
</g>
<g>
</g>
<g>
</g>
</svg>
