<?xml version="1.0" encoding="iso-8859-1"?>
<!-- Generator: Adobe Illustrator 19.0.0, SVG Export Plug-In . SVG Version: 6.00 Build 0)  -->
<svg version="1.1" id="Layer_1" xmlns="http://www.w3.org/2000/svg" xmlns:xlink="http://www.w3.org/1999/xlink" x="0px" y="0px"
	 viewBox="0 0 461.473 461.473" style="enable-background:new 0 0 461.473 461.473;" xml:space="preserve">
<g id="XMLID_342_">
	<g>
		<path d="M396.488,199.35l-21.596,21.596c-4.596-13.418-8.338-24.525-10.738-31.688l78.296-78.296
			c25.344-25.343,25.344-66.58,0-91.924C430.173,6.761,413.85,0,396.488,0s-33.685,6.761-45.962,19.038L272.23,97.334
			c-7.164-2.4-18.27-6.143-31.688-10.738L262.137,65l-63.64-63.64l-51.841,51.842C131.518,47.539,117.255,42,105.268,37.01
			c-22.14-9.219-59.194-24.646-87.082,3.241L0.015,58.421L162.65,206.914l-24.256,24.256c-16.07,16.07-31.041,32.487-44.585,48.887
			c-4.086-0.151-8.063-0.227-11.888-0.227c-45.032,0-70.648,10.384-76.136,30.865c-4.575,17.078,6.508,35.103,32.967,53.684
			c-11.301,26.586-11.096,45.967,0.646,57.71c4.105,4.105,11.608,8.999,24.038,8.999c9.356,0,20.639-2.8,33.654-8.342
			c15.944,22.802,31.143,33.928,46.25,33.929c0,0,0.001,0,0.002,0c2.53,0,5.037-0.328,7.45-0.975
			c22.327-5.983,32.623-35.582,30.64-88.025c16.399-13.543,32.815-28.512,48.885-44.582l24.256-24.256l148.493,162.636
			l18.169-18.171c27.888-27.888,12.46-64.943,3.241-87.083c-4.989-11.985-10.527-26.248-16.191-41.388l51.842-51.841L396.488,199.35
			z M198.499,43.787L219.712,65l-10.687,10.686c-10.127-3.545-20.709-7.291-31.318-11.108L198.499,43.787z M43.89,57.858
			c11.149-6.961,26.213-2.993,49.847,6.847c44.604,18.57,117.696,43.769,154.805,56.317l-64.656,64.657L43.89,57.858z
			 M209.106,301.881c-17.252,17.251-34.889,33.155-52.422,47.269l-6.016,4.842l0.446,7.71c2.682,46.355-5.328,62.488-8.111,64.933
			c-2.945-0.57-13.043-6.952-27.705-30.849l-7.262-11.836l-12.359,6.329c-18.373,9.407-28.085,10.812-32.239,10.812
			c-1.493,0-2.35-0.177-2.765-0.3c-0.871-2.633-0.572-13.278,10.541-34.981l6.328-12.359l-11.835-7.262
			c-23.901-14.667-30.284-24.765-30.853-27.706c2.161-2.526,14.318-8.649,47.067-8.649c5.619,0,11.631,0.183,17.866,0.544
			l7.709,0.446l4.842-6.015c14.114-17.534,30.018-35.171,47.268-52.422L371.739,40.251c6.61-6.61,15.4-10.251,24.749-10.251
			s18.139,3.641,24.749,10.251c6.61,6.611,10.251,15.4,10.251,24.749s-3.641,18.138-10.251,24.749L209.106,301.881z
			 M403.629,417.597l-127.82-139.994l64.657-64.657c12.547,37.109,37.746,110.202,56.315,154.805
			C406.622,391.384,410.59,406.446,403.629,417.597z M396.91,283.78c-3.817-10.609-7.563-21.19-11.108-31.318l10.686-10.686
			l21.214,21.213L396.91,283.78z"/>
	</g>
</g>
<g>
</g>
<g>
</g>
<g>
</g>
<g>
</g>
<g>
</g>
<g>
</g>
<g>
</g>
<g>
</g>
<g>
</g>
<g>
</g>
<g>
</g>
<g>
</g>
<g>
</g>
<g>
</g>
<g>
</g>
</svg>
