<?xml version="1.0" encoding="iso-8859-1"?>
<!-- Generator: Adobe Illustrator 19.0.0, SVG Export Plug-In . SVG Version: 6.00 Build 0)  -->
<svg version="1.1" id="Layer_1" xmlns="http://www.w3.org/2000/svg" xmlns:xlink="http://www.w3.org/1999/xlink" x="0px" y="0px"
	 viewBox="0 0 450 450" style="enable-background:new 0 0 450 450;" xml:space="preserve">
<g id="XMLID_373_">
	<g>
		<path d="M375,420c-8.271,0-15-6.729-15-15h-0.334c45.451-71.216,59.508-172.811,60.203-178.018l1.818-13.64L390,206.301V120h-30
			V60h-90V45c0-24.813-20.187-45-45-45s-45,20.187-45,45v15H90v60H60v86.301l-31.687,7.042l1.818,13.64
			C30.826,232.189,44.883,333.784,90.334,405H90c0,8.271-6.729,15-15,15s-15-6.729-15-15H30c0,24.813,20.187,45,45,45
			c11.517,0,22.032-4.353,30-11.495c7.968,7.142,18.483,11.495,30,11.495c11.517,0,22.032-4.353,30-11.495
			c7.968,7.142,18.483,11.495,30,11.495c11.517,0,22.032-4.353,30-11.495c7.968,7.142,18.483,11.495,30,11.495
			c11.517,0,22.032-4.353,30-11.495c7.968,7.142,18.483,11.495,30,11.495c11.517,0,22.032-4.353,30-11.495
			c7.968,7.142,18.483,11.495,30,11.495c24.813,0,45-20.187,45-45h-30C390,413.271,383.271,420,375,420z M300,90h30v30h-30V90z
			 M270,90v30h-30V90H270z M210,45c0-8.271,6.729-15,15-15s15,6.729,15,15v15h-30V45z M180,90h30v30h-30V90z M120,90h30v30h-30V90z
			 M210,405c0,8.271-6.729,15-15,15s-15-6.729-15-15h-30c0,6.565-4.246,12.145-10.13,14.173
			c-49.515-47.448-71.273-146.477-77.78-182.605L210,203.699V405z M90,199.634V150h270v49.634l-135-30L90,199.634z M310.131,419.173
			C304.246,417.145,300,411.565,300,405h-30c0,8.271-6.729,15-15,15c-8.271,0-15-6.729-15-15V203.699l147.918,32.871
			C381.433,272.687,359.728,371.663,310.131,419.173z"/>
	</g>
</g>
<g>
</g>
<g>
</g>
<g>
</g>
<g>
</g>
<g>
</g>
<g>
</g>
<g>
</g>
<g>
</g>
<g>
</g>
<g>
</g>
<g>
</g>
<g>
</g>
<g>
</g>
<g>
</g>
<g>
</g>
</svg>
