<?xml version="1.0" encoding="iso-8859-1"?>
<!-- Generator: Adobe Illustrator 19.0.0, SVG Export Plug-In . SVG Version: 6.00 Build 0)  -->
<svg version="1.1" id="Layer_1" xmlns="http://www.w3.org/2000/svg" xmlns:xlink="http://www.w3.org/1999/xlink" x="0px" y="0px"
	 viewBox="0 0 450 450" style="enable-background:new 0 0 450 450;" xml:space="preserve">
<g id="XMLID_383_">
	<g>
		<path d="M392.209,350l52-65l-52-65H270v-30h130V60H270V0h-90v60H57.791l-52,65l52,65H180v30H50v130h130v70h-25v30h140v-30h-25v-70
			H392.209z M210,30h30v30h-30V30z M72.209,160l-28-35l28-35H370v70H270h-90H72.209z M240,190v30h-30v-30H240z M240,420h-30v-70h30
			V420z M180,320H80v-70h100h90h107.791l28,35l-28,35H270H180z"/>
	</g>
</g>
<g>
</g>
<g>
</g>
<g>
</g>
<g>
</g>
<g>
</g>
<g>
</g>
<g>
</g>
<g>
</g>
<g>
</g>
<g>
</g>
<g>
</g>
<g>
</g>
<g>
</g>
<g>
</g>
<g>
</g>
</svg>
