<?xml version="1.0" encoding="iso-8859-1"?>
<!-- Generator: Adobe Illustrator 19.0.0, SVG Export Plug-In . SVG Version: 6.00 Build 0)  -->
<svg version="1.1" id="Layer_1" xmlns="http://www.w3.org/2000/svg" xmlns:xlink="http://www.w3.org/1999/xlink" x="0px" y="0px"
	 viewBox="0 0 450 450" style="enable-background:new 0 0 450 450;" xml:space="preserve">
<g id="XMLID_29_">
	<g>
		<g>
			<path d="M140.686,70l-46-70H16.594v30h61.908l26.286,40H39.783L83.21,450h306.768l43.428-380H140.686z M363.21,420H109.978
				L73.406,100h51.097L304.06,373.237l25.07-16.475L160.4,100h239.383L363.21,420z"/>
			<path d="M223.079,286.409c-3.551-13.018-15.449-22.109-28.935-22.109c-2.662,0-5.321,0.357-7.902,1.061l-48.239,13.156
				c-15.958,4.353-25.4,20.878-21.048,36.836l13.155,48.239c3.551,13.017,15.448,22.108,28.934,22.108
				c2.663,0,5.321-0.356,7.902-1.061l48.237-13.155c7.731-2.107,14.179-7.101,18.155-14.059c3.976-6.958,5.004-15.047,2.896-22.777
				L223.079,286.409z M159.052,355.695l-13.155-48.236l48.238-13.156l13.156,48.238L159.052,355.695z"/>
			<path d="M373.777,143.355c-3.88-7.012-10.258-12.093-17.96-14.307l-48.053-13.814c-2.704-0.777-5.495-1.172-8.296-1.172
				c-13.296,0-25.148,8.93-28.825,21.715l-13.814,48.054c-2.214,7.701-1.297,15.804,2.583,22.815
				c3.88,7.012,10.258,12.093,17.96,14.307l48.053,13.814c2.705,0.777,5.496,1.172,8.297,1.172c13.294,0,25.147-8.929,28.825-21.716
				l13.814-48.053C378.574,158.47,377.657,150.367,373.777,143.355z M333.703,205.933l-48.042-13.812l13.815-48.055l48.053,13.815
				L333.703,205.933z"/>
		</g>
	</g>
</g>
<g>
</g>
<g>
</g>
<g>
</g>
<g>
</g>
<g>
</g>
<g>
</g>
<g>
</g>
<g>
</g>
<g>
</g>
<g>
</g>
<g>
</g>
<g>
</g>
<g>
</g>
<g>
</g>
<g>
</g>
</svg>
