<?xml version="1.0" encoding="iso-8859-1"?>
<!-- Generator: Adobe Illustrator 19.0.0, SVG Export Plug-In . SVG Version: 6.00 Build 0)  -->
<svg version="1.1" id="Layer_1" xmlns="http://www.w3.org/2000/svg" xmlns:xlink="http://www.w3.org/1999/xlink" x="0px" y="0px"
	 viewBox="0 0 466.395 466.395" style="enable-background:new 0 0 466.395 466.395;" xml:space="preserve">
<g id="XMLID_60_">
	<g>
		<g>
			<path d="M466.395,179.544l-145.943-30.323L233.198,12.107l-87.254,137.114L0,179.544l106.114,121.66L88.61,454.288l144.587-63.57
				l144.589,63.57l-17.505-153.084L466.395,179.544z M233.198,357.947L124.35,405.804l13.074-114.344l-81.098-92.979l108.126-22.466
				l68.746-108.03l68.746,108.03l108.125,22.466l-81.098,92.979l13.075,114.344L233.198,357.947z"/>
			<path d="M233.198,205.046c-24.813,0-45,20.186-45,45c0,24.814,20.187,45,45,45s45-20.186,45-45
				C278.198,225.232,258.011,205.046,233.198,205.046z M233.198,265.046c-8.271,0-15-6.729-15-15s6.729-15,15-15s15,6.729,15,15
				C248.198,258.318,241.469,265.046,233.198,265.046z"/>
			<rect x="218.198" y="140.046" width="30" height="30"/>
			
				<rect x="127.853" y="205.677" transform="matrix(0.309 -0.9511 0.9511 0.309 -111.1657 288.3536)" width="30.001" height="30.001"/>
			<rect x="162.372" y="311.906" transform="matrix(-0.809 -0.5878 0.5878 -0.809 128.7105 695.6348)" width="30" height="30.001"/>
			<rect x="274.02" y="311.902" transform="matrix(-0.5878 -0.809 0.809 -0.5878 194.4423 752.8737)" width="30.001" height="30"/>
			<rect x="308.561" y="205.692" transform="matrix(0.9511 -0.309 0.309 0.9511 -52.3584 110.7766)" width="30.001" height="30"/>
		</g>
	</g>
</g>
<g>
</g>
<g>
</g>
<g>
</g>
<g>
</g>
<g>
</g>
<g>
</g>
<g>
</g>
<g>
</g>
<g>
</g>
<g>
</g>
<g>
</g>
<g>
</g>
<g>
</g>
<g>
</g>
<g>
</g>
</svg>
