<?xml version="1.0" encoding="iso-8859-1"?>
<!-- Generator: Adobe Illustrator 19.0.0, SVG Export Plug-In . SVG Version: 6.00 Build 0)  -->
<svg version="1.1" id="Layer_1" xmlns="http://www.w3.org/2000/svg" xmlns:xlink="http://www.w3.org/1999/xlink" x="0px" y="0px"
	 viewBox="0 0 455 455" style="enable-background:new 0 0 455 455;" xml:space="preserve">
<g id="XMLID_317_">
	<g>
		<g>
			<polygon points="162.5,205 192.5,205 192.5,180 317.5,180 317.5,150 137.5,150 137.5,180 162.5,180 			"/>
			<rect x="207.5" y="310" width="40" height="30"/>
			<path d="M342.5,90V30h15V0h-260v30h15v60h-50v295c0,23.122,17.532,42.219,40,44.716V455h30v-25h190v25h30v-25.284
				c22.468-2.497,40-21.594,40-44.716V90H342.5z M142.5,30h170v60h-170V30z M292.5,400h-130v-95c0-13.785,11.215-25,25-25h80
				c13.785,0,25,11.215,25,25V400z M362.5,385c0,8.271-6.728,15-15,15h-25v-95c0-30.327-24.673-55-55-55h-80
				c-30.327,0-55,24.673-55,55v95h-25c-8.271,0-15-6.729-15-15V120h270V385z"/>
		</g>
	</g>
</g>
<g>
</g>
<g>
</g>
<g>
</g>
<g>
</g>
<g>
</g>
<g>
</g>
<g>
</g>
<g>
</g>
<g>
</g>
<g>
</g>
<g>
</g>
<g>
</g>
<g>
</g>
<g>
</g>
<g>
</g>
</svg>
