<?xml version="1.0" encoding="iso-8859-1"?>
<!-- Generator: Adobe Illustrator 19.0.0, SVG Export Plug-In . SVG Version: 6.00 Build 0)  -->
<svg version="1.1" id="Layer_1" xmlns="http://www.w3.org/2000/svg" xmlns:xlink="http://www.w3.org/1999/xlink" x="0px" y="0px"
	 viewBox="0 0 460 460" style="enable-background:new 0 0 460 460;" xml:space="preserve">
<g id="XMLID_335_">
	<g>
		<g>
			<path d="M120,300h-20v30h20c2.757,0,5,2.243,5,5v20h30v-20C155,315.701,139.299,300,120,300z"/>
			<path d="M448.826,240L354.802,70.756C352.656,47.926,333.382,30,310,30c-24.813,0-45,20.187-45,45h30c0-8.271,6.729-15,15-15
				s15,6.729,15,15v3.887L414.507,240H280c-19.299,0-35,15.701-35,35v7.58c-4.695-1.665-9.742-2.58-15-2.58s-10.305,0.915-15,2.58
				V275c0-19.299-15.701-35-35-35H45.493L135,78.887V75c0-8.271,6.729-15,15-15s15,6.729,15,15h30c0-24.813-20.187-45-45-45
				c-23.382,0-42.656,17.926-44.802,40.756L11.174,240H0v30c2.757,0,5,2.243,5,5v50c0,57.897,47.103,105,105,105
				c57.897,0,105-47.103,105-105c0-8.271,6.729-15,15-15s15,6.729,15,15c0,57.897,47.103,105,105,105c57.897,0,105-47.103,105-105
				v-50c0-2.757,2.243-5,5-5v-30H448.826z M185,325c0,41.355-33.645,75-75,75s-75-33.645-75-75v-50c0-1.697-0.122-3.367-0.356-5H180
				c2.757,0,5,2.243,5,5V325z M425,275v50c0,41.355-33.645,75-75,75c-41.355,0-75-33.645-75-75v-50c0-2.757,2.243-5,5-5h145.356
				C425.122,271.633,425,273.303,425,275z"/>
			<path d="M365,335v20h30v-20c0-19.299-15.701-35-35-35h-20v30h20C362.757,330,365,332.243,365,335z"/>
		</g>
	</g>
</g>
<g>
</g>
<g>
</g>
<g>
</g>
<g>
</g>
<g>
</g>
<g>
</g>
<g>
</g>
<g>
</g>
<g>
</g>
<g>
</g>
<g>
</g>
<g>
</g>
<g>
</g>
<g>
</g>
<g>
</g>
</svg>
