<?xml version="1.0" encoding="iso-8859-1"?>
<!-- Generator: Adobe Illustrator 19.0.0, SVG Export Plug-In . SVG Version: 6.00 Build 0)  -->
<svg version="1.1" id="Layer_1" xmlns="http://www.w3.org/2000/svg" xmlns:xlink="http://www.w3.org/1999/xlink" x="0px" y="0px"
	 viewBox="0 0 455.58 455.58" style="enable-background:new 0 0 455.58 455.58;" xml:space="preserve">
<g id="XMLID_1_">
	<g>
		<path d="M392.79,81.513V7.79h-330v73.723L0,447.79h197.538l30.252-68.066l30.252,68.066H455.58L392.79,81.513z M332.79,37.79h30
			v30h-30V37.79z M272.79,37.79h30v30h-30V37.79z M212.79,37.79h30v30h-30V37.79z M152.79,37.79h30v30h-30V37.79z M92.79,37.79h30
			v30h-30V37.79z M227.79,305.856L178.042,417.79H35.58l54.857-320H212.79v8.787l-45.606,45.606l21.213,21.213l30.607-30.606h17.574
			l30.606,30.606l21.213-21.213l-45.606-45.606V97.79h122.352l54.858,320H277.538L227.79,305.856z"/>
	</g>
</g>
<g>
</g>
<g>
</g>
<g>
</g>
<g>
</g>
<g>
</g>
<g>
</g>
<g>
</g>
<g>
</g>
<g>
</g>
<g>
</g>
<g>
</g>
<g>
</g>
<g>
</g>
<g>
</g>
<g>
</g>
</svg>
