<?xml version="1.0" encoding="iso-8859-1"?>
<!-- Generator: Adobe Illustrator 19.0.0, SVG Export Plug-In . SVG Version: 6.00 Build 0)  -->
<svg version="1.1" id="Layer_1" xmlns="http://www.w3.org/2000/svg" xmlns:xlink="http://www.w3.org/1999/xlink" x="0px" y="0px"
	 viewBox="0 0 450 450" style="enable-background:new 0 0 450 450;" xml:space="preserve">
<g id="XMLID_349_">
	<g>
		<g>
			<path d="M345,220c-19.555,0-36.228,12.542-42.42,30H147.42c-6.192-17.458-22.865-30-42.42-30c-24.813,0-45,20.187-45,45
				s20.187,45,45,45c19.555,0,36.227-12.542,42.42-30h155.16c6.192,17.458,22.865,30,42.42,30c24.814,0,45-20.187,45-45
				S369.814,220,345,220z M105,280c-8.271,0-15-6.729-15-15s6.729-15,15-15s15,6.729,15,15S113.271,280,105,280z M345,280
				c-8.272,0-15-6.729-15-15s6.728-15,15-15c8.272,0,15,6.729,15,15S353.272,280,345,280z"/>
			<path d="M406.194,161.148L375.811,70H290V0H160v70H74.188l-30.383,91.148C18.828,166.333,0,188.508,0,215v100
				c0,30.327,24.673,55,55,55h5v45c0,19.299,15.701,35,35,35h20c19.299,0,35-15.701,35-35v-45h150v45c0,19.299,15.701,35,35,35h20
				c19.299,0,35-15.701,35-35v-45h5c30.327,0,55-24.673,55-55V215C450,188.508,431.172,166.333,406.194,161.148z M190,30h70v30h-70
				V30z M95.812,100h258.377l20,60H75.812L95.812,100z M120,415c0,2.757-2.243,5-5,5H95c-2.757,0-5-2.243-5-5v-45h30V415z M360,415
				c0,2.757-2.243,5-5,5h-20c-2.757,0-5-2.243-5-5v-45h30V415z M420,315c0,13.785-11.215,25-25,25H55c-13.785,0-25-11.215-25-25V215
				c0-13.785,11.215-25,25-25h340c13.785,0,25,11.215,25,25V315z"/>
		</g>
	</g>
</g>
<g>
</g>
<g>
</g>
<g>
</g>
<g>
</g>
<g>
</g>
<g>
</g>
<g>
</g>
<g>
</g>
<g>
</g>
<g>
</g>
<g>
</g>
<g>
</g>
<g>
</g>
<g>
</g>
<g>
</g>
</svg>
