<?xml version="1.0" encoding="iso-8859-1"?>
<!-- Generator: Adobe Illustrator 19.0.0, SVG Export Plug-In . SVG Version: 6.00 Build 0)  -->
<svg version="1.1" id="Layer_1" xmlns="http://www.w3.org/2000/svg" xmlns:xlink="http://www.w3.org/1999/xlink" x="0px" y="0px"
	 viewBox="0 0 440 440" style="enable-background:new 0 0 440 440;" xml:space="preserve">
<g id="XMLID_303_">
	<g>
		<path d="M425,407.5v-35h-23.814L235,48.874V2.5h-30v46.374L38.814,372.5H15v35H0v30h440v-30H425z M56.85,403.049l144.567-281.526
			c-7.124,68.494-24.637,133.098-50.407,183.799C124.315,357.845,91.59,391.532,56.85,403.049z M205,407.5h-95.324
			c25.334-20.095,48.443-49.953,68.078-88.585c10.436-20.533,19.545-42.826,27.246-66.48V407.5z M235,114.547L354.624,347.5H235
			V114.547z M235,407.5v-30h135.03l15.406,30H235z"/>
	</g>
</g>
<g>
</g>
<g>
</g>
<g>
</g>
<g>
</g>
<g>
</g>
<g>
</g>
<g>
</g>
<g>
</g>
<g>
</g>
<g>
</g>
<g>
</g>
<g>
</g>
<g>
</g>
<g>
</g>
<g>
</g>
</svg>
