<?xml version="1.0" encoding="iso-8859-1"?>
<!-- Generator: Adobe Illustrator 19.0.0, SVG Export Plug-In . SVG Version: 6.00 Build 0)  -->
<svg version="1.1" id="Layer_1" xmlns="http://www.w3.org/2000/svg" xmlns:xlink="http://www.w3.org/1999/xlink" x="0px" y="0px"
	 viewBox="0 0 456.213 456.213" style="enable-background:new 0 0 456.213 456.213;" xml:space="preserve">
<g id="XMLID_309_">
	<g>
		<g>
			<polygon points="308.713,280.607 287.5,301.82 301.894,316.213 273.107,316.213 273.107,291.213 243.107,291.213 
				243.107,346.213 301.894,346.213 287.5,360.607 308.713,381.82 344.32,346.213 378.107,346.213 378.107,316.213 344.32,316.213 
							"/>
			<path d="M422.431,206.213l29.436-29.436L275.092,0l-91.924,91.923l10.607,10.607c5.848,5.849,5.848,15.365,0,21.214
				c-5.85,5.849-15.364,5.848-21.214-0.001l-10.606-10.606l-93.076,93.076H3.107v250h290v-15c0-8.271,6.729-15,15-15
				c8.272,0,15,6.729,15,15v15h130v-250H422.431z M163.772,153.746c16.723,7.968,37.388,5.04,51.216-8.789
				c13.828-13.829,16.758-34.491,8.789-51.215l51.316-51.315l134.35,134.35l-29.437,29.436h-56.898v15c0,8.271-6.728,15-15,15
				c-8.271,0-15-6.729-15-15v-15H111.304L163.772,153.746z M423.107,426.213h-72.57c-6.19-17.461-22.873-30-42.43-30
				s-36.239,12.539-42.43,30H33.107v-190h232.57c6.19,17.461,22.873,30,42.43,30s36.239-12.539,42.43-30h72.57V426.213z"/>
			<rect x="78.107" y="266.213" width="100" height="30"/>
			<rect x="78.107" y="326.213" width="80" height="30"/>
		</g>
	</g>
</g>
<g>
</g>
<g>
</g>
<g>
</g>
<g>
</g>
<g>
</g>
<g>
</g>
<g>
</g>
<g>
</g>
<g>
</g>
<g>
</g>
<g>
</g>
<g>
</g>
<g>
</g>
<g>
</g>
<g>
</g>
</svg>
