<?xml version="1.0" encoding="iso-8859-1"?>
<!-- Generator: Adobe Illustrator 19.0.0, SVG Export Plug-In . SVG Version: 6.00 Build 0)  -->
<svg version="1.1" id="Layer_1" xmlns="http://www.w3.org/2000/svg" xmlns:xlink="http://www.w3.org/1999/xlink" x="0px" y="0px"
	 viewBox="0 0 453.321 453.321" style="enable-background:new 0 0 453.321 453.321;" xml:space="preserve">
<g id="XMLID_361_">
	<g>
		<g>
			<path d="M156.661,250c-24.813,0-45,20.187-45,45s20.187,45,45,45c24.813,0,45-20.187,45-45S181.474,250,156.661,250z
				 M156.661,310c-8.271,0-15-6.729-15-15s6.729-15,15-15s15,6.729,15,15S164.932,310,156.661,310z"/>
			<path d="M251.661,295c0,24.813,20.187,45,45,45s45-20.187,45-45s-20.187-45-45-45S251.661,270.187,251.661,295z M311.661,295
				c0,8.271-6.729,15-15,15s-15-6.729-15-15s6.729-15,15-15S311.661,286.729,311.661,295z"/>
			<path d="M401.546,110C398.918,48.9,348.397,0,286.661,0h-120C104.925,0,54.404,48.9,51.776,110H51.66v255
				c0,19.299,15.701,35,35,35h31.972L94.18,436.68l24.962,16.641L154.688,400h143.944l35.547,53.32l24.962-16.641L334.689,400
				h31.972c19.299,0,35-15.701,35-35V110H401.546z M166.661,30h120c45.189,0,82.242,35.451,84.841,80H81.82
				C84.419,65.451,121.472,30,166.661,30z M371.16,140c-1.933,28.556-10.586,70-44.498,70h-200c-33.912,0-42.566-41.444-44.499-70
				H371.16z M371.661,365c0,2.757-2.243,5-5,5h-280c-2.757,0-5-2.243-5-5V222.047c12.054,11.807,27.312,17.953,45,17.953h200
				c17.687,0,32.946-6.145,45-17.953V365z"/>
		</g>
	</g>
</g>
<g>
</g>
<g>
</g>
<g>
</g>
<g>
</g>
<g>
</g>
<g>
</g>
<g>
</g>
<g>
</g>
<g>
</g>
<g>
</g>
<g>
</g>
<g>
</g>
<g>
</g>
<g>
</g>
<g>
</g>
</svg>
