<?xml version="1.0" encoding="iso-8859-1"?>
<!-- Generator: Adobe Illustrator 19.0.0, SVG Export Plug-In . SVG Version: 6.00 Build 0)  -->
<svg version="1.1" id="Layer_1" xmlns="http://www.w3.org/2000/svg" xmlns:xlink="http://www.w3.org/1999/xlink" x="0px" y="0px"
	 viewBox="0 0 450 450" style="enable-background:new 0 0 450 450;" xml:space="preserve">
<g id="XMLID_266_">
	<g>
		<g>
			<path d="M225,0C128.505,0,50,78.505,50,175c0,80.942,55.242,149.215,130,169.124V450h90V344.124
				C344.758,324.215,400,255.942,400,175C400,78.505,321.495,0,225,0z M240,420h-30v-70h30V420z M225,320
				c-79.953,0-145-65.047-145-145S145.047,30,225,30s145,65.047,145,145S304.953,320,225,320z"/>
			<path d="M195,120c11.517,0,22.032-4.354,30-11.495c7.968,7.142,18.483,11.495,30,11.495c24.814,0,45-20.187,45-45h-30
				c0,8.271-6.728,15-15,15c-8.271,0-15-6.729-15-15h-30c0,8.271-6.729,15-15,15s-15-6.729-15-15h-30
				C150,99.813,170.187,120,195,120z"/>
			<path d="M255,260c-8.271,0-15-6.729-15-15h-30c0,8.271-6.729,15-15,15s-15-6.729-15-15h-30c0,24.814,20.187,45,45,45
				c11.517,0,22.032-4.353,30-11.495c7.968,7.142,18.483,11.495,30,11.495c24.814,0,45-20.186,45-45h-30
				C270,253.271,263.272,260,255,260z"/>
			<path d="M330,155c0,8.271-6.728,15-15,15c-8.272,0-15-6.729-15-15h-30c0,8.271-6.728,15-15,15c-8.271,0-15-6.729-15-15h-30
				c0,8.271-6.729,15-15,15s-15-6.729-15-15h-30c0,8.271-6.729,15-15,15s-15-6.729-15-15H90c0,24.814,20.187,45,45,45
				c11.517,0,22.032-4.354,30-11.495c7.968,7.142,18.483,11.495,30,11.495c11.517,0,22.032-4.354,30-11.495
				c7.968,7.142,18.483,11.495,30,11.495c11.517,0,22.032-4.354,30-11.495c7.968,7.142,18.483,11.495,30,11.495
				c24.814,0,45-20.186,45-45H330z"/>
		</g>
	</g>
</g>
<g>
</g>
<g>
</g>
<g>
</g>
<g>
</g>
<g>
</g>
<g>
</g>
<g>
</g>
<g>
</g>
<g>
</g>
<g>
</g>
<g>
</g>
<g>
</g>
<g>
</g>
<g>
</g>
<g>
</g>
</svg>
