<?xml version="1.0" encoding="iso-8859-1"?>
<!-- Generator: Adobe Illustrator 19.0.0, SVG Export Plug-In . SVG Version: 6.00 Build 0)  -->
<svg version="1.1" id="Layer_1" xmlns="http://www.w3.org/2000/svg" xmlns:xlink="http://www.w3.org/1999/xlink" x="0px" y="0px"
	 viewBox="0 0 442.644 442.644" style="enable-background:new 0 0 442.644 442.644;" xml:space="preserve">
<g id="XMLID_49_">
	<g>
		<g>
			<path d="M370.884,24.401c-5.425-5.425-27.789-24.398-27.789-24.398L0,343.098c0,0,18.983,22.365,24.402,27.785
				c46.274,46.273,107.799,71.758,173.241,71.758c65.441,0,126.966-25.484,173.241-71.758c46.275-46.275,71.759-107.8,71.76-173.241
				C442.643,132.201,417.159,70.678,370.884,24.401z M298.196,87.328c0.317,0.289,3.964,3.711,5.008,4.754
				c58.207,58.207,58.207,152.917,0.001,211.123c-22.91,22.91-51.954,37.456-83.428,42.105c-7.264,1.074-14.656,1.619-22.133,1.619
				c-3.738,0-7.456-0.137-11.146-0.407c-35.677-2.616-68.862-17.766-94.415-43.318c-1.043-1.044-4.464-4.69-4.754-5.008
				L298.196,87.328z M349.67,349.671c-40.608,40.608-94.6,62.972-152.028,62.972S86.223,390.279,45.615,349.671
				c-1.615-1.615-3.216-3.271-4.8-4.961l25.268-25.268c0.146,0.157,3.5,3.689,4.786,4.975
				c33.863,33.863,78.886,52.513,126.775,52.513c0.003,0-0.002,0,0.001,0c0.137,0,0.274-0.004,0.411-0.004
				c47.735-0.107,92.597-18.742,126.362-52.508c69.903-69.903,69.903-183.645-0.001-253.55c-1.524-1.524-4.872-4.69-4.975-4.785
				l25.269-25.268c1.69,1.583,3.345,3.185,4.961,4.8C433.499,129.443,433.499,265.843,349.67,349.671z"/>
			<rect x="235.003" y="235.006" transform="matrix(0.7071 0.7071 -0.7071 0.7071 250.0048 -103.554)" width="30" height="30"/>
			
				<rect x="251.816" y="172.224" transform="matrix(0.2588 0.9659 -0.9659 0.2588 378.6071 -118.9564)" width="29.999" height="29.999"/>
			<rect x="172.231" y="251.824" transform="matrix(0.9659 0.2589 -0.2589 0.9659 75.4642 -39.3766)" width="30" height="29.997"/>
		</g>
	</g>
</g>
<g>
</g>
<g>
</g>
<g>
</g>
<g>
</g>
<g>
</g>
<g>
</g>
<g>
</g>
<g>
</g>
<g>
</g>
<g>
</g>
<g>
</g>
<g>
</g>
<g>
</g>
<g>
</g>
<g>
</g>
</svg>
